<?xml version="1.0" encoding="utf-8"?>
<!-- Generator: Adobe Illustrator 16.0.0, SVG Export Plug-In . SVG Version: 6.00 Build 0)  -->
<!DOCTYPE svg PUBLIC "-//W3C//DTD SVG 1.1//EN" "http://www.w3.org/Graphics/SVG/1.1/DTD/svg11.dtd">
<svg version="1.1" xmlns="http://www.w3.org/2000/svg" xmlns:xlink="http://www.w3.org/1999/xlink" x="0px" y="0px"
	 width="237.48px" height="116px" viewBox="0 0 237.48 116" enable-background="new 0 0 237.48 116" xml:space="preserve">
<g id="Layer_1">
	<rect x="295.939" y="-997.659" fill="#414042" width="294.542" height="130.474"/>
	<rect x="346.995" y="-806.659" fill="#414042" width="337.119" height="119.007"/>
	<rect x="-29.466" y="-331.571" fill="#414042" width="467.908" height="135.506"/>
	<rect x="840.624" y="-1014.963" fill="#414042" width="192.677" height="246.82"/>
	<polygon fill="#231F20" points="42.397,-1092.417 42.397,-1134.917 70.897,-1134.917 70.897,-1120.667 56.647,-1120.667 
		56.647,-1092.5 	"/>
	<rect x="42.52" y="-1156.307" fill="#231F20" width="14.173" height="14.173"/>
	<g>
		<polygon points="380.205,-1127.204 380.205,-1150.179 395.612,-1150.179 395.612,-1142.476 387.909,-1142.476 387.909,-1127.249 
					"/>
		<rect x="380.271" y="-1161.743" width="7.662" height="7.662"/>
	</g>
	<polygon fill="#231F20" points="17.311,-1134.83 36.65,-1134.83 36.65,-1121 0,-1121 0,-1135.46 33.971,-1177.48 48.891,-1177.48 	
		"/>
	<g>
		<polygon points="392.665,-1081.656 392.665,-1099.698 404.763,-1099.698 404.763,-1093.649 398.714,-1093.649 398.714,-1081.692 
					"/>
		<polygon points="382.015,-1099.662 390.226,-1099.662 390.226,-1093.791 374.667,-1093.791 374.667,-1099.929 389.088,-1117.767 
			395.421,-1117.767 		"/>
	</g>
	
		<text transform="matrix(0.9859 0 0 1 76.395 -1136.0859)" fill="#231F20" font-family="'Staatliches-Regular'" font-size="38.9244">INGENIUM</text>
	<text transform="matrix(1.1604 0 0 1 102.0796 -1121.7705)"><tspan x="0" y="0" fill="#231F20" font-family="'UnicaOne-Regular'" font-size="11.1686">Integrated Talent</tspan><tspan x="-14.429" y="13.402" fill="#231F20" font-family="'UnicaOne-Regular'" font-size="11.1686">Management System</tspan></text>
	<text transform="matrix(1.2919 0 0 1 99.5679 -1096.0459)" fill="#58595B" font-family="'Kraftstoff-Regular'" font-size="8.1559">Your Journey To Be Great Leaders</text>
	<polygon fill="#E11D48" points="55.59,-878.698 55.59,-934.225 92.826,-934.225 92.826,-915.607 74.208,-915.607 74.208,-878.808 	
		"/>
	<rect x="55.75" y="-962.173" fill="#E11D48" width="18.518" height="18.519"/>
	<polygon fill="#0D9488" points="22.814,-934.113 48.082,-934.113 48.082,-916.044 0.198,-916.044 0.198,-934.935 44.581,-989.835 
		64.074,-989.835 	"/>
	
		<text transform="matrix(0.9859 0 0 1 100.0088 -935.7529)" fill="#0D9488" font-family="'Staatliches-Regular'" font-size="50.8556">INGENIUM</text>
	<text transform="matrix(1.1604 0 0 1 133.5674 -917.0498)"><tspan x="0" y="0" fill="#231F20" font-family="'UnicaOne-Regular'" font-size="14.592">Integrated Talent</tspan><tspan x="-18.852" y="17.511" fill="#231F20" font-family="'UnicaOne-Regular'" font-size="14.592">Management System</tspan></text>
	
		<text transform="matrix(1.2919 0 0 1 130.2847 -883.4395)" fill="#58595B" font-family="'Kraftstoff-Regular'" font-size="10.6559">Your Journey To Be Great Leaders</text>
	<text transform="matrix(0.9859 0 0 1 63.0879 -548.877)"><tspan x="0" y="0" fill="#0D9488" font-family="'Staatliches-Regular'" font-size="50.8556">INGENIU</tspan><tspan x="137.612" y="0" fill="#0D9488" font-family="'Staatliches-Regular'" font-size="50.8556">M</tspan></text>
	
		<text transform="matrix(1.0786 0 0 1 56.3809 -378.0439)" fill="#0D9488" font-family="'Staatliches-Regular'" font-size="97.7225">INGENIUM</text>
	
		<text transform="matrix(1.271 0 0 1 63.0874 -530.1738)" fill="#231F20" font-family="'UnicaOne-Regular'" font-size="15" letter-spacing="0.787">Integrated Talent</text>
	<text transform="matrix(1.271 0 0 1 63.0874 -513.6738)" fill="#231F20" font-family="'UnicaOne-Regular'" font-size="14.592">Management System</text>
	<text transform="matrix(1.2919 0 0 1 63.0879 -496.5635)" fill="#58595B" font-family="'Kraftstoff-Regular'" font-size="13">Your Journey To Be Great Leaders</text>
	<g>
		<polygon fill="#E11D48" points="50.79,-697.434 50.79,-748.08 84.753,-748.08 84.753,-731.099 67.771,-731.099 67.771,-697.533 		
			"/>
		<rect x="50.936" y="-773.571" fill="#E11D48" width="16.89" height="16.891"/>
		<polygon fill="#0D9488" points="20.894,-747.978 43.941,-747.978 43.941,-731.497 0.266,-731.497 0.266,-748.728 40.748,-798.803 
			58.527,-798.803 		"/>
		
			<text transform="matrix(1.0499 0 0 1 91.3057 -698.2324)" fill="#0D9488" font-family="'Staatliches-Regular'" font-size="69.0263">INGENIUM</text>
	</g>
	<g>
		<polygon fill="#E11D48" points="744.264,-804.913 744.264,-891.785 802.52,-891.785 802.52,-862.658 773.393,-862.658 
			773.393,-805.085 		"/>
		<rect x="745.693" y="-942.833" fill="#E11D48" width="29.946" height="29.944"/>
		<polygon fill="#0D9488" points="692.438,-897.461 733.295,-897.461 733.295,-868.242 655.866,-868.242 655.866,-898.789 
			727.634,-987.563 759.154,-987.563 		"/>
	</g>
	<g>
		<g>
			<polygon fill="#FFFFFF" points="949.085,-804.913 949.085,-891.786 1007.341,-891.786 1007.341,-862.659 978.214,-862.659 
				978.214,-805.085 			"/>
			<rect x="950.516" y="-942.833" fill="#FFFFFF" width="29.945" height="29.944"/>
			<polygon fill="#FFFFFF" points="897.26,-897.461 938.116,-897.461 938.116,-868.243 860.688,-868.243 860.688,-898.79 
				932.456,-987.564 963.976,-987.564 			"/>
		</g>
	</g>
	<g>
		<polygon fill="#FFFFFF" points="404.831,-696.827 404.831,-747.474 438.794,-747.474 438.794,-730.492 421.813,-730.492 
			421.813,-696.928 		"/>
		<rect x="404.977" y="-772.965" fill="#FFFFFF" width="16.89" height="16.891"/>
		<polygon fill="#FFFFFF" points="374.936,-747.371 397.982,-747.371 397.982,-730.891 354.307,-730.891 354.307,-748.121 
			394.789,-798.196 412.569,-798.196 		"/>
		
			<text transform="matrix(1.0499 0 0 1 445.3472 -697.626)" fill="#FFFFFF" font-family="'Staatliches-Regular'" font-size="69.0263">INGENIUM</text>
	</g>
	<g>
		<polygon fill="#FFFFFF" points="369.415,-877.933 369.415,-933.461 406.65,-933.461 406.65,-914.842 388.032,-914.842 
			388.032,-878.042 		"/>
		<rect x="369.575" y="-961.408" fill="#FFFFFF" width="18.518" height="18.519"/>
		<polygon fill="#FFFFFF" points="336.638,-933.348 361.906,-933.348 361.906,-915.279 314.022,-915.279 314.022,-934.17 
			358.405,-989.071 377.898,-989.071 		"/>
		
			<text transform="matrix(0.9859 0 0 1 413.833 -934.9883)" fill="#FFFFFF" font-family="'Staatliches-Regular'" font-size="50.8556">INGENIUM</text>
		<text transform="matrix(1.1604 0 0 1 447.3916 -916.2852)"><tspan x="0" y="0" fill="#FFFFFF" font-family="'UnicaOne-Regular'" font-size="14.592">Integrated Talent</tspan><tspan x="-18.852" y="17.511" fill="#FFFFFF" font-family="'UnicaOne-Regular'" font-size="14.592">Management System</tspan></text>
		
			<text transform="matrix(1.2919 0 0 1 444.1084 -882.6748)" fill="#FFFFFF" font-family="'Kraftstoff-Regular'" font-size="10.6559">Your Journey To Be Great Leaders</text>
	</g>
	<text transform="matrix(1 0 0 1 226.4961 -1153)" font-family="'Calibri'" font-size="12">Font : Staatliches (reguler) </text>
	<text transform="matrix(1 0 0 1 379.4189 -1173.2505)" font-family="'Calibri'" font-size="12">Icon :</text>
	<text transform="matrix(1 0 0 1 417.085 -1148.6528)"><tspan x="0" y="0" font-family="'Calibri'" font-size="12">Huruf “I”</tspan><tspan x="0" y="14.4" font-family="'Calibri'" font-size="12">Inisial dari kata “Ingenium”</tspan></text>
	<text transform="matrix(1 0 0 1 417.085 -1111.0908)"><tspan x="0" y="0" font-family="'Calibri'" font-size="12">Angka 4 </tspan><tspan x="0" y="14.4" font-family="'Calibri'" font-size="12">Inisial dari versi “Ingenium”</tspan><tspan x="0" y="28.8" font-family="'Calibri'" font-size="12">versi 4.0</tspan></text>
	<text transform="matrix(1 0 0 1 398.1494 -1025.9512)" font-family="'Calibri-Bold'" font-size="37.199">RESULT</text>
	<text transform="matrix(1 0 0 1 226.4961 -1122.1465)" font-family="'Calibri'" font-size="12">Font : Unica One (reguler) </text>
	<text transform="matrix(1 0 0 1 593.2822 -1173.2505)" font-family="'Calibri'" font-size="12">Color :</text>
	<text transform="matrix(1 0 0 1 617.9648 -1111.0908)" font-family="'Calibri'" font-size="12">#e11d48</text>
	<text transform="matrix(1 0 0 1 617.9648 -1148.6528)" font-family="'Calibri'" font-size="12">#0d9488</text>
	<text transform="matrix(1 0 0 1 715.1084 -1148.6528)" font-family="'Calibri'" font-size="12">#231f20</text>
	<text transform="matrix(1 0 0 1 715.1084 -1111.0908)" font-family="'Calibri'" font-size="12">#58595b</text>
	<text transform="matrix(1 0 0 1 226.4961 -1094.186)" font-family="'Calibri'" font-size="12">Font : Kraftstoff (reguler) </text>
	<rect x="593.282" y="-1158.444" fill="#0D9488" width="14.173" height="14.173"/>
	<rect x="692.393" y="-1158.444" fill="#58595B" width="14.173" height="14.173"/>
	<rect x="693.059" y="-1120.882" fill="#6D6E71" width="14.173" height="14.173"/>
	<rect x="593.282" y="-1120.882" fill="#E11D48" width="14.173" height="14.173"/>
	<polyline fill="none" stroke="#414042" stroke-width="2" stroke-miterlimit="10" points="158.48,-1169 158.48,-1183.5 
		263.98,-1183.5 263.98,-1173 	"/>
	<polyline fill="none" stroke="#414042" stroke-width="2" stroke-miterlimit="10" points="162.599,-1090 162.599,-1075.5 
		268.099,-1075.5 268.099,-1086 	"/>
	<line stroke="#414042" stroke-width="2" stroke-miterlimit="10" x1="199.98" y1="-1124" x2="222.48" y2="-1124"/>
	<path fill="none" stroke="#0D9488" stroke-miterlimit="10" d="M1181.217-1021.092v14.058h-2.153
		c-6.578,0-11.903,5.327-11.903,11.904v86.515h-2.174c-6.558,0-11.904-5.336-11.904-11.904v-89.967
		c0.566-5.555,4.95-9.97,10.486-10.604H1181.217z"/>
	<path fill="none" stroke="#E11D48" stroke-miterlimit="10" d="M1197.131-1009.188v88.678c0,6.578-5.336,11.904-11.904,11.904
		h-15.832v-13.888h2.022c5.715,0,10.477-4.028,11.647-9.384c0.179-0.814,0.257-1.658,0.257-2.521v-86.694h1.905
		C1191.795-1021.092,1197.131-1015.755,1197.131-1009.188z"/>
	<path fill="none" stroke="#231F20" stroke-linejoin="round" stroke-miterlimit="10" d="M1217.636-1175.579v89.39
		c0,6.63-5.38,12-12,12h-2.18v-87.26c0-6.63-5.37-12-12-12h-2.17v-2.13c0-6.62,5.37-12,12-12h4.35
		C1212.256-1187.579,1217.636-1182.199,1217.636-1175.579z"/>
	<path fill="none" stroke="#231F20" stroke-linejoin="round" stroke-miterlimit="10" d="M1232.019-1060.299v2c0,6.62-5.37,12-12,12
		h-4.351c-6.619,0-12-5.38-12-12v-89.39c0-6.63,5.381-12,12-12h2.181v87.39c0,6.62,5.37,12,12,12H1232.019z"/>
	<path fill="#0D9488" d="M1167.188-1136.212v73.5c0,6.63-5.38,12-12,12h-1.97v-73.5c0-6.63,5.38-12,12-12H1167.188z"/>
	<path fill="#E11D48" d="M1165.275-1141.66c0,1.437-1.212,2.602-2.707,2.602h-4.178c-1.495,0-2.707-1.165-2.707-2.602v-4.015
		c0-1.437,1.212-2.602,2.707-2.602h4.178c1.495,0,2.707,1.165,2.707,2.602V-1141.66z"/>
	<path fill="#E11D48" d="M1181.496-1003.612v66.54c0,0.79-0.071,1.563-0.236,2.31c-1.075,4.913-5.441,8.606-10.68,8.606h-1.101
		v-66.539c0-6.031,4.887-10.917,10.919-10.917H1181.496z"/>
	<path fill="#E11D48" d="M1396.813-980.147v77.534c0,0.921,0.083,1.822,0.275,2.692c1.253,5.725,6.341,10.028,12.444,10.028h1.282
		v-77.534c0-7.027-5.694-12.721-12.724-12.721H1396.813z"/>
	<path fill="#E11D48" d="M1535.571-964.712v55.729h-1.106c-4.084,0-7.643-2.229-9.542-5.526c-0.553-0.959-0.968-2.013-1.21-3.127
		c-0.163-0.751-0.232-1.537-0.232-2.332v-55.728h1.097c0.95,0,1.865,0.121,2.746,0.345
		C1532.065-974.134,1535.571-969.833,1535.571-964.712z"/>
	<path fill="none" stroke="#0D9488" stroke-miterlimit="10" d="M1266.641-1163.31v7.56c-0.05,0-0.101,0-0.15,0.01
		c-3.319,0.15-6.069,2.9-6.68,6.51c-0.04,0.24-0.07,0.49-0.09,0.74c-0.03,0.23-0.04,0.47-0.04,0.71v96.75c0,0.2,0.01,0.39,0.03,0.59
		c-0.101,0.01-0.19,0.01-0.28,0.01c-1.95,0-3.73-0.9-5.01-2.36c-0.99-1.13-1.69-2.6-1.95-4.24v-99.68c0.6-3.76,3.49-6.6,6.96-6.6
		H1266.641z"/>
	<path fill="none" stroke="#0D9488" stroke-miterlimit="10" d="M1276.69-1155.25v96.75c0,4.45-3.17,8.06-7.08,8.06h-6.97v-7
		c0.02,0.14,0.05,0.28,0.08,0.42h0.05c3.91,0,7.09-3.6,7.09-8.06v-96.75c0-0.51-0.04-1-0.12-1.48c1.9,0.04,3.63,0.93,4.88,2.36
		C1275.9-1159.49,1276.69-1157.47,1276.69-1155.25z"/>
	<path fill="none" stroke="#0D9488" stroke-miterlimit="10" d="M1266.721-1042.88h-0.08v-0.42
		C1266.66-1043.16,1266.69-1043.02,1266.721-1042.88z"/>
	<path fill="none" stroke="#414042" stroke-miterlimit="10" d="M1261.596-1145.462v86.264c1.749-0.012,3.344-0.919,4.491-2.396
		c0.81-1.038,1.403-2.346,1.687-3.817v-86.313c0-0.661,0.059-1.297,0.179-1.92h-0.071c-1.721,0.043-3.282,0.945-4.415,2.396
		C1262.311-1149.765,1261.596-1147.716,1261.596-1145.462z"/>
	<path fill="none" stroke="#0D9488" stroke-miterlimit="10" d="M1390.525-1084.604c0,4.453-3.173,8.063-7.086,8.063l0,0
		c-3.914,0-7.087-3.609-7.087-8.063v-96.75c0-4.453,3.173-8.063,7.087-8.063l0,0c3.913,0,7.086,3.609,7.086,8.063V-1084.604z"/>
	<path fill="#E11D48" d="M1268.355-908.688c0,6.627-5.373,12-12,12h-8.598c-6.627,0-12-5.373-12-12v-89.386c0-6.627,5.373-12,12-12
		h8.598c6.627,0,12,5.373,12,12V-908.688z"/>
	<path fill="#FFFFFF" d="M1257.244-993.404v66.541c0,0.789-0.071,1.563-0.236,2.309c-1.075,4.914-5.441,8.607-10.68,8.607h-1.101
		v-66.54c0-6.031,4.887-10.917,10.919-10.917H1257.244z"/>
	<path fill="none" stroke="#E11D48" stroke-miterlimit="10" d="M1413.66-1051.876c0-4.79,1.75-9.17,4.65-12.53
		c12.09,5.22,21.13,16.15,23.72,29.4c-2.72,1.49-5.85,2.33-9.17,2.33C1422.261-1032.676,1413.66-1041.276,1413.66-1051.876z"/>
	<path fill="#E11D48" d="M1443.515-984.094c14.396,22.712,7.657,52.797-15.055,67.193c-22.72,14.401-52.804,7.66-67.2-15.051
		c-14.403-22.72-7.662-52.804,15.059-67.207c5.287-3.351,10.978-5.561,16.779-6.682c-1.36,2.803-2.16,5.857-2.365,8.97
		c-3.464,1.036-6.851,2.567-10.052,4.596c-18.918,11.992-24.531,37.04-12.544,55.95c11.993,18.92,37.04,24.531,55.959,12.539
		c18.91-11.988,24.522-37.033,12.53-55.954c-0.439-0.692-0.895-1.374-1.37-2.031c1.738-2.619,2.949-5.528,3.576-8.554
		C1440.532-988.406,1442.102-986.323,1443.515-984.094z"/>
	<path fill="none" stroke="#E11D48" stroke-miterlimit="10" d="M1455.203-1085.433c10.95,6.09,19.301,16.27,22.99,28.49
		c-1.72,2.61-4.07,4.77-6.83,6.27c-2.72,1.49-5.85,2.33-9.17,2.33c-10.6,0-19.2-8.6-19.2-19.2c0-4.79,1.75-9.17,4.65-12.53
		C1449.674-1082.433,1452.264-1084.283,1455.203-1085.433z"/>
	<path fill="none" stroke="#E11D48" stroke-miterlimit="10" d="M1547.233-1006.415c-0.619-7.605-6.794-13.745-14.634-14.125
		c-1.982-0.097-3.902,0.178-5.666,0.786c-2.406,0.81-4.558,2.189-6.287,4.008c-2.462,2.585-4.039,6.043-4.226,9.885
		c-0.011,0.199-0.021,0.409-0.011,0.61c-0.045,3.353,1.003,6.476,2.813,9.038c2.423,3.432,6.2,5.835,10.59,6.406
		c0.418,0.062,0.849,0.104,1.287,0.125c2.666,0.13,5.219-0.42,7.461-1.51c2.283-1.099,4.256-2.739,5.733-4.772
		c0.293-0.396,0.566-0.793,0.808-1.223c17.226,5.161,29.37,21.544,28.457,40.311c-0.396,8.167-3.2,15.659-7.736,21.762
		c-3.844,5.265-8.965,9.529-14.869,12.365c-4.582,2.229-9.645,3.594-14.983,3.911l-0.461,9.48
		c6.957-0.252,13.596-1.971,19.555-4.868c7.295-3.52,13.62-8.79,18.377-15.287c5.605-7.547,9.075-16.806,9.565-26.893
		C1584.144-979.833,1568.84-1000.242,1547.233-1006.415z M1538.353-1000.334c-0.439,0.6-0.962,1.132-1.551,1.587
		c-0.447,0.347-0.927,0.65-1.442,0.898c-1.177,0.574-2.505,0.857-3.901,0.789c-1.5-0.072-2.896-0.551-4.059-1.334
		c-2.293-1.521-3.741-4.169-3.601-7.108c0.033-0.672,0.148-1.318,0.335-1.93c0.366-1.225,1.02-2.329,1.875-3.235
		c0.896-0.945,2.016-1.668,3.279-2.092c0.917-0.312,1.925-0.453,2.953-0.403c3.297,0.161,6.035,2.281,7.145,5.176
		c0.385,1.008,0.571,2.111,0.516,3.267C1539.819-1003.072,1539.263-1001.563,1538.353-1000.334z"/>
	<path fill="#E11D48" d="M1431.082-1007.046c2.098,3.311,3.063,7.021,2.972,10.666c-0.055,3.126-0.884,6.208-2.412,8.953
		c-1.499,2.714-3.693,5.1-6.497,6.877c-8.952,5.675-20.821,3.016-26.497-5.937c-2.563-4.046-3.431-8.682-2.78-13.073
		c0.451-3.081,1.648-6.03,3.516-8.575c1.369-1.874,3.11-3.535,5.197-4.857C1413.541-1018.673,1425.4-1016.008,1431.082-1007.046z"/>
	<circle fill="none" stroke="#E11D48" stroke-miterlimit="10" cx="1648.228" cy="-1126.317" r="42.52"/>
	<circle fill="none" stroke="#E11D48" stroke-miterlimit="10" cx="1648.228" cy="-1126.317" r="25.853"/>
	<g>
		<g>
			<g>
				<path fill="#759DCC" d="M1990.254-979.241v246.753h-246.752v-246.753H1990.254 M1990.635-979.622h-247.514v247.514h247.514
					V-979.622L1990.635-979.622z"/>
				<path fill="#759DCC" d="M2143.218-979.241v246.753h-399.716v-246.753H2143.218 M2143.598-979.622h-400.477v247.514h400.477
					V-979.622L2143.598-979.622z"/>
				<path fill="#759DCC" d="M2143.218-979.241v152.202h-152.202v-152.202H2143.218 M2143.598-979.622h-152.963v152.964h152.963
					V-979.622L2143.598-979.622z"/>
				<path fill="#759DCC" d="M2143.218-979.241v246.733h-152.202v-246.733H2143.218 M2143.598-979.622h-152.963v247.495h152.963
					V-979.622L2143.598-979.622z"/>
				<path fill="#759DCC" d="M2143.218-826.277v93.777h-93.777v-93.777H2143.218 M2143.598-826.658h-94.538v94.538h94.538V-826.658
					L2143.598-826.658z"/>
				<path fill="#759DCC" d="M2143.218-826.277v93.777h-152.202v-93.777H2143.218 M2143.598-826.658h-152.963v94.538h152.963
					V-826.658L2143.598-826.658z"/>
				<path fill="#759DCC" d="M2048.681-790.168v57.668h-57.668v-57.668H2048.681 M2049.062-790.549h-58.43v58.429h58.43V-790.549
					L2049.062-790.549z"/>
				<path fill="#759DCC" d="M2048.681-826.277v93.777h-57.668v-93.777H2048.681 M2049.062-826.658h-58.43v94.538h58.43V-826.658
					L2049.062-826.658z"/>
				<path fill="#759DCC" d="M2026.364-826.278v35.35h-35.349v-35.35H2026.364 M2026.745-826.659h-36.11v36.11h36.11V-826.659
					L2026.745-826.659z"/>
				<path fill="#759DCC" d="M2048.681-826.278v35.35h-57.665v-35.35H2048.681 M2049.062-826.659h-58.427v36.11h58.427V-826.659
					L2049.062-826.659z"/>
				<path fill="#759DCC" d="M2048.681-826.277v21.555h-21.555v-21.555H2048.681 M2049.062-826.658h-22.316v22.316h22.316V-826.658
					L2049.062-826.658z"/>
				<path fill="#759DCC" d="M2048.681-826.277v35.347h-21.555v-35.347H2048.681 M2049.062-826.658h-22.316v36.107h22.316V-826.658
					L2049.062-826.658z"/>
				<path fill="#759DCC" d="M2048.681-803.961v13.031h-13.031v-13.031H2048.681 M2049.062-804.342h-13.793v13.792h13.793V-804.342
					L2049.062-804.342z"/>
				<path fill="#759DCC" d="M2048.681-803.961v13.031h-21.555v-13.031H2048.681 M2049.062-804.342h-22.316v13.792h22.316V-804.342
					L2049.062-804.342z"/>
				<path fill="#759DCC" d="M2034.889-798.693v7.764h-7.764v-7.764H2034.889 M2035.27-799.074h-8.524v8.524h8.524V-799.074
					L2035.27-799.074z"/>
				<path fill="#759DCC" d="M2034.889-803.961v13.031h-7.764v-13.031H2034.889 M2035.27-804.342h-8.524v13.792h8.524V-804.342
					L2035.27-804.342z"/>
				<path fill="#759DCC" d="M2031.633-803.961v4.507h-4.507v-4.507H2031.633 M2032.014-804.342h-5.269v5.268h5.269V-804.342
					L2032.014-804.342z"/>
				<path fill="#759DCC" d="M2034.889-803.961v4.507h-7.763v-4.507H2034.889 M2035.269-804.342h-8.523v5.268h8.523V-804.342
					L2035.269-804.342z"/>
			</g>
			<g>
				<path fill="#CAB2F4" d="M1743.152-979.031c-0.103,0-0.207-0.027-0.301-0.086c-0.268-0.166-0.366-0.528-0.2-0.796
					c0.167-0.268,0.502-0.36,0.771-0.194l0.032,0.02c0.269,0.166,0.351,0.518,0.185,0.786
					C1743.53-979.126,1743.344-979.031,1743.152-979.031z"/>
				<path fill="#CAB2F4" d="M2140.32-733.573c-0.102,0-0.204-0.027-0.298-0.084l-0.065-0.04c-0.269-0.165-0.353-0.518-0.188-0.786
					c0.165-0.27,0.516-0.352,0.786-0.188l0.065,0.04c0.269,0.165,0.353,0.517,0.188,0.786
					C2140.7-733.67,2140.513-733.573,2140.32-733.573z M2137.011-735.619c-0.103,0-0.207-0.027-0.301-0.085
					c-0.268-0.167-0.383-0.539-0.216-0.807s0.485-0.368,0.754-0.205l0.064,0.04c0.268,0.167,0.35,0.52,0.185,0.787
					C2137.388-735.715,2137.201-735.619,2137.011-735.619z M2133.701-737.664c-0.102,0-0.205-0.027-0.298-0.084l-0.065-0.04
					c-0.269-0.166-0.353-0.518-0.188-0.786c0.165-0.269,0.515-0.352,0.786-0.188l0.065,0.04c0.269,0.165,0.353,0.517,0.188,0.786
					C2134.081-737.761,2133.893-737.664,2133.701-737.664z M2130.391-739.71c-0.103,0-0.206-0.027-0.3-0.086
					c-0.269-0.166-0.383-0.538-0.217-0.806c0.167-0.268,0.486-0.371,0.754-0.204l0.064,0.04c0.269,0.166,0.351,0.519,0.185,0.786
					C2130.769-739.806,2130.582-739.71,2130.391-739.71z M2127.081-741.755c-0.102,0-0.204-0.028-0.298-0.084l-0.065-0.04
					c-0.269-0.166-0.353-0.518-0.188-0.786c0.165-0.269,0.516-0.352,0.786-0.188l0.065,0.04c0.269,0.165,0.353,0.517,0.188,0.786
					C2127.462-741.852,2127.273-741.755,2127.081-741.755z M2123.771-743.802c-0.103,0-0.207-0.027-0.301-0.085
					c-0.268-0.167-0.383-0.539-0.216-0.807c0.166-0.268,0.486-0.369,0.754-0.205l0.064,0.04c0.268,0.167,0.351,0.52,0.185,0.787
					C2124.149-743.897,2123.963-743.802,2123.771-743.802z M2120.462-745.847c-0.103,0-0.207-0.027-0.301-0.086
					c-0.268-0.166-0.383-0.539-0.216-0.807s0.486-0.368,0.754-0.204l0.064,0.04c0.268,0.166,0.351,0.519,0.185,0.786
					C2120.84-745.942,2120.653-745.847,2120.462-745.847z M2117.151-747.893c-0.103,0-0.206-0.027-0.3-0.086
					c-0.268-0.166-0.383-0.538-0.217-0.806c0.167-0.268,0.485-0.37,0.754-0.204l0.064,0.04c0.269,0.166,0.351,0.519,0.185,0.786
					C2117.529-747.988,2117.343-747.893,2117.151-747.893z M2113.843-749.938c-0.103,0-0.207-0.027-0.301-0.086
					c-0.268-0.166-0.383-0.539-0.217-0.807c0.167-0.267,0.486-0.368,0.754-0.204l0.065,0.04c0.268,0.166,0.35,0.519,0.184,0.786
					C2114.22-750.033,2114.033-749.938,2113.843-749.938z M2110.532-751.983c-0.103,0-0.207-0.027-0.301-0.085
					c-0.268-0.167-0.383-0.539-0.216-0.807c0.166-0.268,0.486-0.369,0.754-0.205l0.064,0.041c0.268,0.166,0.351,0.519,0.185,0.786
					C2110.91-752.079,2110.724-751.983,2110.532-751.983z M2107.223-754.028c-0.103,0-0.207-0.027-0.3-0.086
					c-0.269-0.166-0.384-0.539-0.217-0.807s0.487-0.368,0.754-0.204l0.064,0.04c0.268,0.167,0.351,0.519,0.185,0.786
					C2107.601-754.124,2107.414-754.028,2107.223-754.028z M2103.913-756.074c-0.102,0-0.204-0.027-0.298-0.084l-0.065-0.04
					c-0.269-0.165-0.353-0.517-0.188-0.786c0.165-0.269,0.517-0.351,0.786-0.188l0.065,0.04c0.269,0.165,0.353,0.517,0.188,0.786
					C2104.293-756.171,2104.105-756.074,2103.913-756.074z M2100.604-758.119c-0.103,0-0.207-0.027-0.301-0.086
					c-0.268-0.166-0.383-0.539-0.216-0.807c0.166-0.267,0.485-0.368,0.754-0.204l0.064,0.04c0.268,0.167,0.35,0.519,0.185,0.786
					C2100.98-758.215,2100.794-758.119,2100.604-758.119z M2097.294-760.165c-0.102,0-0.204-0.027-0.298-0.084l-0.065-0.04
					c-0.269-0.165-0.353-0.517-0.188-0.786c0.165-0.268,0.516-0.35,0.786-0.188l0.065,0.04c0.269,0.165,0.353,0.517,0.188,0.786
					C2097.674-760.262,2097.485-760.165,2097.294-760.165z M2093.983-762.21c-0.103,0-0.206-0.027-0.3-0.087
					c-0.268-0.165-0.383-0.538-0.217-0.806c0.167-0.268,0.486-0.37,0.754-0.204l0.064,0.041c0.269,0.165,0.351,0.518,0.185,0.785
					C2094.361-762.306,2094.175-762.21,2093.983-762.21z M2090.674-764.256c-0.102,0-0.204-0.027-0.298-0.084l-0.065-0.04
					c-0.269-0.165-0.353-0.517-0.188-0.786c0.165-0.268,0.515-0.351,0.785-0.188l0.065,0.04c0.269,0.165,0.353,0.517,0.188,0.786
					C2091.055-764.353,2090.866-764.256,2090.674-764.256z M2087.364-766.301c-0.103,0-0.207-0.027-0.301-0.086
					c-0.268-0.166-0.383-0.539-0.216-0.807c0.166-0.267,0.486-0.368,0.754-0.204l0.064,0.04c0.268,0.166,0.351,0.519,0.184,0.786
					C2087.742-766.396,2087.556-766.301,2087.364-766.301z M2084.055-768.347c-0.102,0-0.203-0.027-0.297-0.084
					c-0.269-0.164-0.387-0.535-0.222-0.805c0.162-0.27,0.483-0.374,0.752-0.21l0.064,0.039c0.27,0.165,0.355,0.516,0.19,0.785
					C2084.436-768.444,2084.247-768.347,2084.055-768.347z M2080.744-770.393c-0.103,0-0.206-0.027-0.3-0.086
					c-0.268-0.166-0.383-0.539-0.217-0.807c0.167-0.267,0.486-0.369,0.754-0.203l0.065,0.04c0.268,0.166,0.35,0.519,0.184,0.786
					C2081.122-770.488,2080.936-770.393,2080.744-770.393z M2077.436-772.438c-0.103,0-0.207-0.027-0.301-0.085
					c-0.268-0.167-0.383-0.539-0.217-0.807c0.167-0.267,0.486-0.37,0.755-0.204l0.064,0.04c0.268,0.166,0.35,0.519,0.185,0.786
					C2077.813-772.534,2077.626-772.438,2077.436-772.438z M2074.126-774.483c-0.103,0-0.204-0.027-0.298-0.084l-0.065-0.04
					c-0.269-0.165-0.353-0.517-0.188-0.786c0.165-0.269,0.516-0.351,0.786-0.188l0.065,0.041c0.269,0.165,0.353,0.517,0.188,0.785
					C2074.506-774.58,2074.317-774.483,2074.126-774.483z M2070.815-776.529c-0.103,0-0.206-0.027-0.3-0.085
					c-0.268-0.167-0.383-0.539-0.217-0.807c0.167-0.268,0.486-0.368,0.754-0.205l0.064,0.04c0.268,0.167,0.351,0.52,0.185,0.787
					C2071.193-776.625,2071.007-776.529,2070.815-776.529z M2067.506-778.574c-0.102,0-0.204-0.027-0.298-0.084l-0.065-0.04
					c-0.269-0.165-0.353-0.517-0.188-0.786c0.166-0.27,0.517-0.351,0.786-0.188l0.065,0.04c0.269,0.166,0.353,0.518,0.188,0.786
					C2067.886-778.671,2067.698-778.574,2067.506-778.574z M2064.196-780.619c-0.103,0-0.207-0.028-0.301-0.086
					c-0.268-0.167-0.383-0.539-0.216-0.807c0.166-0.268,0.486-0.368,0.754-0.205l0.064,0.041c0.268,0.166,0.351,0.519,0.185,0.786
					C2064.574-780.716,2064.387-780.619,2064.196-780.619z M2060.887-782.665c-0.102,0-0.204-0.027-0.298-0.084l-0.065-0.04
					c-0.269-0.165-0.353-0.517-0.188-0.786c0.165-0.269,0.516-0.351,0.786-0.188l0.065,0.041c0.269,0.165,0.353,0.517,0.188,0.785
					C2061.267-782.762,2061.078-782.665,2060.887-782.665z M2057.576-784.711c-0.103,0-0.206-0.027-0.3-0.086
					c-0.268-0.166-0.383-0.538-0.217-0.806c0.167-0.268,0.485-0.37,0.754-0.204l0.065,0.04c0.268,0.166,0.35,0.519,0.184,0.786
					C2057.954-784.807,2057.768-784.711,2057.576-784.711z M2054.268-786.756c-0.104,0-0.207-0.027-0.301-0.086
					c-0.268-0.166-0.383-0.539-0.217-0.807c0.167-0.267,0.487-0.368,0.754-0.204l0.065,0.04c0.268,0.166,0.35,0.519,0.184,0.787
					C2054.645-786.852,2054.458-786.756,2054.268-786.756z M2050.957-788.802c-0.103,0-0.207-0.027-0.301-0.085
					c-0.268-0.167-0.383-0.539-0.216-0.807c0.166-0.268,0.486-0.368,0.754-0.205l0.064,0.04c0.268,0.167,0.351,0.52,0.185,0.787
					C2051.335-788.897,2051.148-788.802,2050.957-788.802z M2047.647-790.847c-0.103,0-0.207-0.027-0.3-0.086
					c-0.269-0.166-0.384-0.539-0.217-0.807c0.167-0.267,0.485-0.368,0.754-0.204l0.064,0.04c0.268,0.166,0.351,0.519,0.185,0.787
					C2048.025-790.942,2047.839-790.847,2047.647-790.847z M2044.338-792.893c-0.104,0-0.207-0.027-0.301-0.085
					c-0.268-0.167-0.383-0.539-0.217-0.807c0.168-0.268,0.486-0.368,0.754-0.205l0.065,0.04c0.268,0.167,0.35,0.52,0.184,0.787
					C2044.715-792.988,2044.528-792.893,2044.338-792.893z M2041.028-794.938c-0.103,0-0.207-0.027-0.301-0.086
					c-0.268-0.166-0.383-0.538-0.216-0.807c0.166-0.267,0.486-0.37,0.754-0.203l0.064,0.04c0.268,0.166,0.35,0.519,0.185,0.786
					C2041.405-795.034,2041.219-794.938,2041.028-794.938z M2037.719-796.983c-0.102,0-0.205-0.028-0.298-0.084l-0.065-0.041
					c-0.269-0.165-0.353-0.517-0.188-0.785s0.516-0.352,0.786-0.188l0.065,0.04c0.269,0.165,0.353,0.517,0.188,0.786
					C2038.099-797.08,2037.91-796.983,2037.719-796.983z M2034.408-799.029c-0.103,0-0.206-0.027-0.3-0.085
					c-0.268-0.167-0.383-0.539-0.217-0.808c0.167-0.268,0.486-0.367,0.754-0.204l0.064,0.04c0.269,0.167,0.351,0.52,0.185,0.787
					C2034.786-799.125,2034.6-799.029,2034.408-799.029z M2031.099-801.074c-0.102,0-0.204-0.028-0.298-0.084l-0.065-0.041
					c-0.269-0.165-0.353-0.517-0.188-0.785s0.515-0.353,0.785-0.188l0.065,0.04c0.269,0.165,0.353,0.517,0.188,0.786
					C2031.479-801.171,2031.291-801.074,2031.099-801.074z M2027.789-803.12c-0.103,0-0.207-0.027-0.301-0.086
					c-0.268-0.166-0.383-0.538-0.216-0.807c0.167-0.267,0.486-0.367,0.754-0.204l0.064,0.04c0.268,0.167,0.351,0.52,0.185,0.787
					C2028.167-803.216,2027.98-803.12,2027.789-803.12z M2024.479-805.166c-0.102,0-0.204-0.027-0.298-0.083l-0.065-0.041
					c-0.269-0.165-0.353-0.517-0.188-0.785c0.165-0.27,0.517-0.352,0.786-0.188l0.065,0.04c0.269,0.165,0.353,0.517,0.188,0.786
					C2024.859-805.262,2024.672-805.166,2024.479-805.166z M2021.169-807.211c-0.103,0-0.206-0.027-0.3-0.086
					c-0.268-0.166-0.383-0.539-0.217-0.807c0.167-0.268,0.486-0.37,0.754-0.203l0.065,0.04c0.268,0.166,0.35,0.519,0.184,0.786
					C2021.547-807.307,2021.36-807.211,2021.169-807.211z M2017.86-809.256c-0.103,0-0.207-0.028-0.301-0.086
					c-0.268-0.167-0.383-0.539-0.216-0.807s0.485-0.369,0.754-0.205l0.064,0.041c0.268,0.166,0.35,0.519,0.184,0.786
					C2018.237-809.353,2018.051-809.256,2017.86-809.256z M2014.55-811.302c-0.103,0-0.207-0.027-0.301-0.086
					c-0.268-0.166-0.383-0.539-0.216-0.807c0.166-0.267,0.485-0.368,0.754-0.204l0.064,0.04c0.268,0.167,0.351,0.519,0.185,0.787
					C2014.928-811.397,2014.741-811.302,2014.55-811.302z M2011.24-813.348c-0.103,0-0.207-0.027-0.3-0.085
					c-0.268-0.167-0.383-0.539-0.217-0.807c0.167-0.267,0.486-0.369,0.754-0.204l0.064,0.04c0.268,0.166,0.351,0.519,0.184,0.786
					C2011.618-813.443,2011.432-813.348,2011.24-813.348z M2007.931-815.393c-0.103,0-0.207-0.027-0.301-0.086
					c-0.268-0.166-0.383-0.539-0.216-0.807c0.166-0.268,0.485-0.368,0.754-0.204l0.064,0.04c0.268,0.167,0.35,0.519,0.184,0.787
					C2008.308-815.488,2008.121-815.393,2007.931-815.393z M2004.621-817.438c-0.103,0-0.207-0.027-0.301-0.085
					c-0.268-0.167-0.383-0.539-0.216-0.807c0.166-0.267,0.486-0.369,0.754-0.205l0.064,0.041c0.268,0.166,0.35,0.519,0.184,0.786
					C2004.999-817.534,2004.812-817.438,2004.621-817.438z M2001.312-819.484c-0.101,0-0.201-0.025-0.294-0.082l-0.065-0.039
					c-0.271-0.163-0.357-0.514-0.194-0.783c0.162-0.271,0.512-0.359,0.783-0.195l0.065,0.039c0.271,0.163,0.357,0.515,0.195,0.784
					C2001.694-819.582,2001.506-819.484,2001.312-819.484z M1998.001-821.529c-0.103,0-0.206-0.027-0.3-0.086
					c-0.268-0.166-0.383-0.539-0.217-0.807c0.167-0.268,0.485-0.368,0.754-0.204l0.064,0.04c0.269,0.166,0.351,0.519,0.185,0.786
					C1998.379-821.626,1998.192-821.529,1998.001-821.529z M1994.692-823.575c-0.103,0-0.205-0.027-0.299-0.084l-0.065-0.04
					c-0.269-0.165-0.353-0.517-0.188-0.786c0.165-0.269,0.516-0.352,0.785-0.188l0.065,0.04c0.269,0.165,0.353,0.517,0.188,0.786
					C1995.072-823.672,1994.884-823.575,1994.692-823.575z M1991.382-825.62c-0.103,0-0.207-0.028-0.301-0.086
					c-0.268-0.166-0.383-0.539-0.216-0.807c0.166-0.267,0.486-0.368,0.754-0.204l0.064,0.04c0.268,0.166,0.351,0.519,0.184,0.786
					C1991.76-825.717,1991.573-825.62,1991.382-825.62z M1988.072-827.666c-0.102,0-0.204-0.027-0.298-0.084l-0.065-0.04
					c-0.269-0.165-0.353-0.517-0.188-0.786c0.165-0.269,0.516-0.351,0.786-0.188l0.065,0.04c0.269,0.165,0.353,0.517,0.188,0.785
					C1988.452-827.763,1988.264-827.666,1988.072-827.666z M1984.763-829.711c-0.104,0-0.207-0.028-0.301-0.087
					c-0.268-0.165-0.383-0.538-0.217-0.806c0.167-0.268,0.486-0.37,0.754-0.204l0.065,0.04c0.268,0.166,0.35,0.519,0.185,0.786
					C1985.14-829.808,1984.953-829.711,1984.763-829.711z M1981.453-831.757c-0.103,0-0.207-0.027-0.301-0.085
					c-0.268-0.167-0.383-0.539-0.216-0.808c0.166-0.267,0.486-0.368,0.754-0.204l0.064,0.04c0.268,0.167,0.35,0.52,0.185,0.787
					C1981.83-831.853,1981.644-831.757,1981.453-831.757z M1978.143-833.802c-0.103,0-0.207-0.028-0.301-0.086
					c-0.268-0.167-0.383-0.539-0.216-0.807c0.167-0.267,0.486-0.368,0.754-0.204l0.064,0.04c0.268,0.166,0.351,0.519,0.185,0.786
					C1978.521-833.898,1978.334-833.802,1978.143-833.802z M1974.833-835.848c-0.103,0-0.206-0.027-0.3-0.085
					c-0.268-0.167-0.383-0.539-0.217-0.808c0.167-0.267,0.486-0.368,0.754-0.204l0.064,0.04c0.268,0.167,0.351,0.52,0.185,0.787
					C1975.211-835.943,1975.024-835.848,1974.833-835.848z M1971.523-837.893c-0.102,0-0.204-0.028-0.298-0.084l-0.065-0.041
					c-0.269-0.165-0.353-0.517-0.188-0.785s0.515-0.352,0.785-0.188l0.065,0.04c0.269,0.165,0.353,0.517,0.188,0.786
					C1971.903-837.989,1971.716-837.893,1971.523-837.893z M1968.214-839.938c-0.103,0-0.207-0.027-0.301-0.086
					c-0.268-0.166-0.383-0.538-0.216-0.807c0.166-0.267,0.486-0.368,0.754-0.204l0.064,0.04c0.268,0.167,0.351,0.52,0.185,0.787
					C1968.592-840.034,1968.404-839.938,1968.214-839.938z M1964.904-841.983c-0.102,0-0.204-0.028-0.298-0.084l-0.065-0.041
					c-0.269-0.165-0.353-0.517-0.188-0.785c0.165-0.27,0.517-0.352,0.786-0.188l0.065,0.04c0.269,0.165,0.353,0.517,0.188,0.786
					C1965.284-842.08,1965.096-841.983,1964.904-841.983z M1961.594-844.029c-0.103,0-0.206-0.027-0.3-0.086
					c-0.268-0.166-0.383-0.538-0.217-0.807c0.167-0.267,0.487-0.369,0.754-0.203l0.065,0.04c0.268,0.166,0.35,0.519,0.184,0.786
					C1961.972-844.125,1961.785-844.029,1961.594-844.029z M1958.285-846.075c-0.103,0-0.205-0.027-0.299-0.084l-0.065-0.04
					c-0.269-0.165-0.353-0.518-0.188-0.786s0.516-0.352,0.785-0.188l0.065,0.04c0.269,0.165,0.353,0.517,0.188,0.786
					C1958.665-846.172,1958.477-846.075,1958.285-846.075z M1954.975-848.121c-0.103,0-0.207-0.027-0.301-0.085
					c-0.268-0.167-0.383-0.539-0.216-0.807c0.166-0.268,0.485-0.368,0.754-0.205l0.064,0.04c0.268,0.167,0.351,0.52,0.185,0.787
					C1955.353-848.217,1955.166-848.121,1954.975-848.121z M1951.665-850.166c-0.103,0-0.206-0.027-0.3-0.086
					c-0.268-0.166-0.384-0.539-0.217-0.807c0.167-0.267,0.486-0.369,0.754-0.204l0.064,0.04c0.268,0.166,0.351,0.519,0.185,0.786
					C1952.043-850.262,1951.856-850.166,1951.665-850.166z M1948.355-852.212c-0.103,0-0.207-0.027-0.301-0.086
					c-0.268-0.166-0.383-0.538-0.217-0.806c0.167-0.268,0.486-0.368,0.754-0.205l0.065,0.041c0.268,0.166,0.35,0.519,0.185,0.786
					C1948.732-852.308,1948.546-852.212,1948.355-852.212z M1945.046-854.257c-0.103,0-0.207-0.027-0.301-0.086
					c-0.268-0.166-0.383-0.539-0.216-0.807c0.166-0.267,0.485-0.369,0.754-0.204l0.064,0.04c0.268,0.166,0.351,0.519,0.185,0.786
					C1945.424-854.354,1945.236-854.257,1945.046-854.257z M1941.736-856.303c-0.102,0-0.205-0.027-0.299-0.084l-0.064-0.04
					c-0.269-0.165-0.353-0.517-0.188-0.786c0.165-0.269,0.515-0.351,0.786-0.188l0.064,0.04c0.27,0.165,0.354,0.517,0.189,0.786
					C1942.116-856.399,1941.928-856.303,1941.736-856.303z M1938.426-858.348c-0.103,0-0.207-0.027-0.3-0.086
					c-0.269-0.166-0.384-0.539-0.217-0.807c0.167-0.267,0.486-0.369,0.754-0.204l0.065,0.04c0.268,0.166,0.35,0.519,0.184,0.786
					C1938.804-858.443,1938.617-858.348,1938.426-858.348z M1935.117-860.394c-0.103,0-0.205-0.027-0.299-0.084l-0.065-0.04
					c-0.269-0.165-0.353-0.517-0.188-0.786c0.166-0.269,0.517-0.351,0.787-0.188l0.064,0.04c0.269,0.165,0.353,0.517,0.188,0.785
					C1935.496-860.49,1935.309-860.394,1935.117-860.394z M1931.807-862.438c-0.103,0-0.207-0.027-0.301-0.086
					c-0.268-0.166-0.383-0.539-0.216-0.807c0.167-0.267,0.485-0.369,0.754-0.204l0.064,0.04c0.268,0.166,0.351,0.519,0.185,0.786
					C1932.184-862.535,1931.998-862.438,1931.807-862.438z M1928.497-864.484c-0.102,0-0.204-0.027-0.298-0.084l-0.065-0.04
					c-0.269-0.165-0.353-0.517-0.188-0.786c0.165-0.269,0.516-0.351,0.786-0.188l0.065,0.04c0.268,0.165,0.353,0.517,0.188,0.786
					C1928.877-864.581,1928.689-864.484,1928.497-864.484z M1925.188-866.529c-0.104,0-0.207-0.027-0.301-0.087
					c-0.268-0.165-0.383-0.538-0.217-0.806c0.168-0.267,0.486-0.369,0.754-0.204l0.064,0.04c0.268,0.166,0.351,0.519,0.186,0.786
					C1925.564-866.626,1925.378-866.529,1925.188-866.529z M1921.877-868.575c-0.102,0-0.206-0.027-0.3-0.085
					c-0.268-0.167-0.383-0.539-0.216-0.808c0.166-0.268,0.486-0.367,0.754-0.204l0.064,0.04c0.268,0.167,0.35,0.52,0.184,0.787
					C1922.256-868.671,1922.068-868.575,1921.877-868.575z M1918.567-870.62c-0.103,0-0.206-0.028-0.3-0.086
					c-0.268-0.166-0.383-0.539-0.217-0.807c0.166-0.267,0.486-0.369,0.754-0.204l0.064,0.04c0.268,0.166,0.35,0.519,0.185,0.786
					C1918.945-870.717,1918.759-870.62,1918.567-870.62z M1915.258-872.666c-0.103,0-0.207-0.027-0.301-0.085
					c-0.268-0.167-0.383-0.539-0.216-0.808c0.167-0.267,0.486-0.367,0.754-0.204l0.065,0.04c0.268,0.167,0.35,0.52,0.184,0.787
					C1915.636-872.762,1915.449-872.666,1915.258-872.666z M1911.949-874.712c-0.102,0-0.202-0.026-0.295-0.082l-0.064-0.039
					c-0.271-0.163-0.357-0.514-0.195-0.784s0.513-0.358,0.783-0.194l0.066,0.039c0.271,0.163,0.357,0.514,0.194,0.784
					C1912.332-874.811,1912.143-874.712,1911.949-874.712z M1908.639-876.758c-0.104,0-0.207-0.027-0.301-0.085
					c-0.268-0.167-0.383-0.539-0.217-0.807c0.167-0.267,0.486-0.37,0.754-0.204l0.065,0.04c0.268,0.166,0.351,0.519,0.184,0.786
					C1909.016-876.854,1908.83-876.758,1908.639-876.758z M1905.329-878.803c-0.103,0-0.204-0.027-0.298-0.084l-0.065-0.041
					c-0.269-0.164-0.353-0.516-0.188-0.785c0.164-0.268,0.516-0.353,0.786-0.188l0.065,0.04c0.268,0.165,0.352,0.517,0.188,0.785
					C1905.709-878.899,1905.521-878.803,1905.329-878.803z M1902.02-880.848c-0.103,0-0.205-0.027-0.299-0.086
					c-0.27-0.164-0.385-0.536-0.22-0.805c0.165-0.27,0.483-0.374,0.753-0.207l0.064,0.039c0.27,0.166,0.353,0.518,0.188,0.786
					C1902.398-880.945,1902.211-880.848,1902.02-880.848z M1898.709-882.894c-0.102,0-0.206-0.028-0.3-0.086
					c-0.268-0.167-0.383-0.538-0.216-0.807c0.166-0.267,0.486-0.37,0.754-0.204l0.064,0.041c0.268,0.166,0.35,0.518,0.184,0.785
					C1899.088-882.989,1898.9-882.894,1898.709-882.894z M1895.399-884.939c-0.103,0-0.206-0.027-0.3-0.086
					c-0.268-0.166-0.383-0.538-0.217-0.807c0.166-0.268,0.485-0.37,0.754-0.203l0.064,0.04c0.268,0.166,0.35,0.519,0.185,0.786
					C1895.777-885.035,1895.59-884.939,1895.399-884.939z M1892.09-886.984c-0.103,0-0.207-0.027-0.301-0.086
					c-0.268-0.166-0.383-0.539-0.216-0.807s0.487-0.37,0.754-0.204l0.065,0.04c0.268,0.166,0.35,0.519,0.184,0.787
					C1892.468-887.08,1892.281-886.984,1892.09-886.984z M1888.781-889.03c-0.103,0-0.205-0.026-0.299-0.084l-0.065-0.04
					c-0.269-0.166-0.353-0.517-0.188-0.785c0.166-0.27,0.516-0.354,0.786-0.188l0.065,0.04c0.269,0.165,0.353,0.517,0.188,0.785
					C1889.16-889.127,1888.973-889.03,1888.781-889.03z M1885.471-891.075c-0.104,0-0.207-0.028-0.301-0.086
					c-0.268-0.167-0.383-0.538-0.217-0.807c0.167-0.267,0.486-0.37,0.754-0.204l0.065,0.041c0.268,0.166,0.351,0.518,0.185,0.785
					C1885.848-891.171,1885.662-891.075,1885.471-891.075z M1882.161-893.121c-0.103,0-0.204-0.027-0.298-0.084l-0.066-0.04
					c-0.268-0.165-0.352-0.517-0.188-0.786c0.165-0.269,0.516-0.352,0.786-0.188l0.065,0.04c0.268,0.165,0.352,0.517,0.188,0.785
					C1882.541-893.218,1882.354-893.121,1882.161-893.121z M1878.852-895.166c-0.104,0-0.207-0.027-0.301-0.086
					c-0.268-0.166-0.383-0.539-0.217-0.807s0.486-0.37,0.754-0.204l0.064,0.04c0.268,0.166,0.351,0.519,0.186,0.787
					C1879.229-895.262,1879.042-895.166,1878.852-895.166z M1875.541-897.212c-0.102,0-0.206-0.028-0.3-0.086
					c-0.268-0.167-0.383-0.538-0.216-0.806c0.166-0.269,0.484-0.371,0.754-0.205l0.064,0.041c0.268,0.166,0.35,0.518,0.184,0.785
					C1875.92-897.308,1875.732-897.212,1875.541-897.212z M1872.231-899.258c-0.103,0-0.207-0.027-0.3-0.086
					c-0.269-0.166-0.384-0.538-0.217-0.807c0.166-0.268,0.486-0.369,0.754-0.203l0.064,0.04c0.268,0.166,0.35,0.519,0.185,0.786
					C1872.609-899.354,1872.422-899.258,1872.231-899.258z M1868.922-901.303c-0.103,0-0.207-0.027-0.301-0.086
					c-0.268-0.166-0.383-0.539-0.216-0.807s0.486-0.371,0.754-0.204l0.064,0.04c0.269,0.166,0.351,0.519,0.185,0.787
					C1869.3-901.398,1869.113-901.303,1868.922-901.303z M1865.611-903.348c-0.102,0-0.206-0.028-0.3-0.086
					c-0.268-0.167-0.383-0.539-0.216-0.807c0.166-0.268,0.486-0.37,0.754-0.205l0.064,0.041c0.268,0.166,0.35,0.518,0.184,0.786
					C1865.989-903.443,1865.803-903.348,1865.611-903.348z M1862.303-905.394c-0.104,0-0.207-0.028-0.301-0.086
					c-0.268-0.167-0.383-0.538-0.217-0.807c0.167-0.268,0.486-0.37,0.754-0.204l0.065,0.041c0.268,0.166,0.351,0.518,0.185,0.785
					C1862.68-905.489,1862.494-905.394,1862.303-905.394z M1858.993-907.439c-0.103,0-0.204-0.027-0.298-0.084l-0.066-0.04
					c-0.268-0.165-0.352-0.517-0.188-0.785c0.165-0.27,0.516-0.354,0.785-0.188l0.066,0.04c0.268,0.165,0.352,0.517,0.188,0.786
					C1859.373-907.535,1859.186-907.439,1858.993-907.439z M1855.684-909.484c-0.104,0-0.207-0.027-0.301-0.086
					c-0.268-0.166-0.383-0.539-0.217-0.807s0.486-0.371,0.754-0.204l0.064,0.04c0.268,0.166,0.351,0.519,0.185,0.787
					C1856.061-909.58,1855.874-909.484,1855.684-909.484z M1852.373-911.53c-0.102,0-0.204-0.027-0.298-0.085l-0.065-0.039
					c-0.268-0.166-0.353-0.518-0.188-0.785c0.164-0.27,0.515-0.354,0.785-0.188l0.065,0.04c0.269,0.165,0.353,0.516,0.188,0.785
					C1852.754-911.627,1852.565-911.53,1852.373-911.53z M1849.063-913.576c-0.103,0-0.207-0.027-0.301-0.086
					c-0.268-0.166-0.382-0.538-0.216-0.807c0.166-0.267,0.486-0.369,0.754-0.203l0.064,0.04c0.268,0.166,0.35,0.519,0.185,0.786
					C1849.441-913.672,1849.254-913.576,1849.063-913.576z M1845.754-915.621c-0.102,0-0.205-0.027-0.299-0.086l-0.065-0.039
					c-0.269-0.166-0.352-0.518-0.187-0.786c0.166-0.269,0.518-0.351,0.787-0.187l0.064,0.041c0.269,0.165,0.352,0.518,0.186,0.785
					C1846.133-915.718,1845.945-915.621,1845.754-915.621z M1842.444-917.666c-0.103,0-0.206-0.028-0.3-0.086l-0.064-0.04
					c-0.269-0.165-0.352-0.518-0.186-0.786c0.165-0.269,0.518-0.351,0.785-0.186l0.065,0.04c0.269,0.165,0.352,0.518,0.186,0.786
					C1842.822-917.763,1842.636-917.666,1842.444-917.666z M1839.135-919.712c-0.103,0-0.206-0.028-0.3-0.085l-0.065-0.041
					c-0.268-0.165-0.352-0.518-0.186-0.785c0.166-0.269,0.518-0.352,0.786-0.186l0.065,0.039c0.268,0.166,0.352,0.518,0.186,0.787
					C1839.514-919.809,1839.326-919.712,1839.135-919.712z M1835.824-921.758c-0.102,0-0.207-0.027-0.3-0.086
					c-0.269-0.166-0.383-0.538-0.217-0.807c0.165-0.268,0.486-0.37,0.754-0.203l0.065,0.04c0.268,0.166,0.35,0.519,0.184,0.786
					C1836.202-921.854,1836.016-921.758,1835.824-921.758z M1832.516-923.803c-0.104,0-0.207-0.027-0.301-0.086
					c-0.269-0.166-0.383-0.539-0.217-0.807c0.166-0.269,0.486-0.371,0.754-0.204l0.064,0.04c0.268,0.166,0.351,0.519,0.184,0.787
					C1832.893-923.898,1832.706-923.803,1832.516-923.803z M1829.205-925.849c-0.102,0-0.205-0.027-0.299-0.085
					c-0.268-0.165-0.385-0.537-0.219-0.805c0.164-0.27,0.483-0.373,0.753-0.207l0.064,0.039c0.269,0.166,0.353,0.518,0.187,0.785
					C1829.584-925.945,1829.396-925.849,1829.205-925.849z M1825.896-927.895c-0.104,0-0.207-0.027-0.301-0.084l-0.064-0.041
					c-0.269-0.166-0.352-0.518-0.186-0.785c0.165-0.27,0.518-0.352,0.785-0.187l0.065,0.04c0.269,0.166,0.352,0.518,0.187,0.786
					C1826.274-927.99,1826.088-927.895,1825.896-927.895z M1822.586-929.939c-0.103,0-0.205-0.027-0.299-0.085l-0.065-0.04
					c-0.269-0.166-0.353-0.518-0.187-0.786s0.518-0.351,0.786-0.187l0.065,0.041c0.268,0.165,0.352,0.518,0.186,0.785
					C1822.965-930.035,1822.777-929.939,1822.586-929.939z M1819.276-931.984c-0.103,0-0.206-0.028-0.3-0.086l-0.064-0.04
					c-0.27-0.165-0.352-0.518-0.187-0.786c0.165-0.268,0.519-0.352,0.786-0.186l0.064,0.04c0.27,0.165,0.353,0.518,0.187,0.786
					C1819.654-932.081,1819.468-931.984,1819.276-931.984z M1815.967-934.03c-0.103,0-0.206-0.028-0.3-0.085l-0.065-0.041
					c-0.268-0.165-0.352-0.518-0.186-0.785c0.166-0.269,0.518-0.352,0.786-0.186l0.065,0.039c0.268,0.166,0.352,0.518,0.186,0.787
					C1816.346-934.127,1816.158-934.03,1815.967-934.03z M1812.656-936.076c-0.103,0-0.207-0.027-0.301-0.086
					c-0.268-0.166-0.382-0.537-0.216-0.807c0.166-0.268,0.485-0.37,0.754-0.203l0.065,0.04c0.268,0.166,0.35,0.519,0.184,0.786
					C1813.034-936.172,1812.848-936.076,1812.656-936.076z M1809.347-938.121c-0.103,0-0.206-0.027-0.3-0.086
					c-0.269-0.166-0.383-0.539-0.217-0.807s0.486-0.371,0.754-0.204l0.064,0.04c0.268,0.166,0.35,0.519,0.184,0.787
					C1809.725-938.217,1809.538-938.121,1809.347-938.121z M1806.037-940.167c-0.102,0-0.205-0.027-0.299-0.085
					c-0.269-0.165-0.385-0.536-0.219-0.805c0.164-0.27,0.483-0.374,0.753-0.207l0.064,0.039c0.269,0.166,0.353,0.518,0.187,0.785
					C1806.416-940.264,1806.229-940.167,1806.037-940.167z M1802.728-942.213c-0.103,0-0.207-0.027-0.301-0.086
					c-0.269-0.166-0.382-0.537-0.216-0.806s0.485-0.372,0.754-0.204l0.064,0.04c0.268,0.166,0.35,0.519,0.184,0.786
					C1803.105-942.309,1802.918-942.213,1802.728-942.213z M1799.418-944.258c-0.103,0-0.205-0.027-0.299-0.086l-0.065-0.039
					c-0.269-0.166-0.353-0.518-0.187-0.786s0.518-0.352,0.786-0.187l0.065,0.041c0.268,0.165,0.352,0.518,0.186,0.785
					C1799.797-944.354,1799.609-944.258,1799.418-944.258z M1796.108-946.303c-0.103,0-0.206-0.027-0.3-0.086l-0.064-0.04
					c-0.27-0.165-0.352-0.518-0.186-0.786c0.164-0.268,0.518-0.352,0.785-0.186l0.064,0.04c0.27,0.165,0.352,0.518,0.187,0.786
					C1796.486-946.399,1796.3-946.303,1796.108-946.303z M1792.799-948.349c-0.104,0-0.206-0.028-0.3-0.085l-0.065-0.041
					c-0.268-0.165-0.352-0.518-0.186-0.785c0.166-0.269,0.516-0.352,0.785-0.186l0.066,0.039c0.268,0.166,0.352,0.518,0.186,0.787
					C1793.178-948.445,1792.99-948.349,1792.799-948.349z M1789.488-950.395c-0.102,0-0.205-0.027-0.299-0.085l-0.065-0.04
					c-0.269-0.166-0.352-0.518-0.186-0.785c0.165-0.27,0.518-0.352,0.786-0.187l0.064,0.04c0.269,0.166,0.352,0.518,0.186,0.786
					C1789.867-950.49,1789.68-950.395,1789.488-950.395z M1786.179-952.439c-0.103,0-0.206-0.027-0.3-0.086
					c-0.269-0.166-0.383-0.538-0.217-0.807s0.485-0.371,0.754-0.203l0.064,0.039c0.268,0.166,0.35,0.519,0.184,0.787
					C1786.557-952.535,1786.369-952.439,1786.179-952.439z M1782.869-954.485c-0.102,0-0.205-0.026-0.299-0.085
					c-0.269-0.165-0.385-0.536-0.219-0.805c0.164-0.27,0.483-0.373,0.752-0.207l0.065,0.039c0.269,0.166,0.353,0.518,0.187,0.785
					C1783.248-954.582,1783.061-954.485,1782.869-954.485z M1779.559-956.531c-0.102,0-0.206-0.027-0.3-0.086
					c-0.269-0.166-0.383-0.537-0.216-0.806c0.166-0.269,0.485-0.371,0.754-0.204l0.064,0.04c0.268,0.166,0.35,0.519,0.184,0.786
					C1779.938-956.627,1779.75-956.531,1779.559-956.531z M1776.25-958.576c-0.104,0-0.207-0.027-0.301-0.086
					c-0.269-0.166-0.383-0.538-0.217-0.807s0.486-0.37,0.754-0.203l0.064,0.039c0.269,0.166,0.351,0.519,0.185,0.787
					C1776.627-958.672,1776.44-958.576,1776.25-958.576z M1772.94-960.621c-0.103,0-0.206-0.027-0.3-0.086l-0.064-0.04
					c-0.27-0.165-0.352-0.518-0.187-0.786c0.165-0.268,0.519-0.352,0.786-0.186l0.064,0.04c0.27,0.165,0.352,0.518,0.187,0.786
					C1773.318-960.718,1773.132-960.621,1772.94-960.621z M1769.631-962.667c-0.104,0-0.206-0.027-0.3-0.085l-0.065-0.041
					c-0.268-0.164-0.352-0.518-0.186-0.785c0.166-0.269,0.518-0.351,0.785-0.186l0.066,0.039c0.268,0.166,0.352,0.518,0.186,0.787
					C1770.009-962.764,1769.822-962.667,1769.631-962.667z M1766.32-964.713c-0.102,0-0.205-0.027-0.299-0.084l-0.065-0.041
					c-0.269-0.165-0.352-0.518-0.187-0.785c0.166-0.269,0.519-0.352,0.787-0.187l0.064,0.04c0.269,0.166,0.352,0.518,0.186,0.786
					C1766.699-964.809,1766.512-964.713,1766.32-964.713z M1763.011-966.758c-0.103,0-0.206-0.027-0.3-0.085l-0.064-0.04
					c-0.269-0.166-0.352-0.518-0.186-0.786c0.164-0.268,0.516-0.352,0.785-0.187l0.065,0.041c0.269,0.165,0.352,0.518,0.186,0.785
					C1763.39-966.854,1763.203-966.758,1763.011-966.758z M1759.701-968.804c-0.102,0-0.205-0.027-0.299-0.085
					c-0.269-0.165-0.385-0.536-0.219-0.805c0.164-0.269,0.484-0.373,0.752-0.207l0.065,0.04c0.269,0.165,0.353,0.517,0.187,0.786
					C1760.08-968.9,1759.893-968.804,1759.701-968.804z M1756.392-970.849c-0.103,0-0.207-0.027-0.301-0.086
					c-0.269-0.166-0.383-0.538-0.216-0.806c0.166-0.269,0.484-0.371,0.754-0.204l0.064,0.04c0.268,0.166,0.35,0.518,0.184,0.786
					C1756.769-970.945,1756.582-970.849,1756.392-970.849z M1753.082-972.895c-0.104,0-0.207-0.027-0.301-0.086
					c-0.269-0.166-0.383-0.538-0.217-0.806s0.486-0.371,0.754-0.204l0.064,0.04c0.269,0.166,0.351,0.518,0.185,0.786
					C1753.459-972.99,1753.272-972.895,1753.082-972.895z M1749.771-974.94c-0.103,0-0.207-0.027-0.301-0.086
					c-0.268-0.166-0.383-0.538-0.216-0.806c0.167-0.269,0.485-0.372,0.754-0.204l0.064,0.04c0.269,0.166,0.351,0.518,0.185,0.786
					C1750.149-975.036,1749.963-974.94,1749.771-974.94z M1746.463-976.985c-0.104,0-0.207-0.027-0.3-0.085l-0.065-0.041
					c-0.268-0.166-0.352-0.517-0.186-0.786c0.165-0.268,0.518-0.351,0.785-0.186l0.065,0.041c0.269,0.165,0.353,0.517,0.187,0.786
					C1746.841-977.082,1746.654-976.985,1746.463-976.985z"/>
				<path fill="#CAB2F4" d="M2143.598-731.549c-0.103,0-0.205-0.027-0.299-0.084c-0.269-0.165-0.368-0.527-0.204-0.796
					c0.166-0.269,0.501-0.361,0.77-0.198l0.032,0.02c0.269,0.166,0.353,0.518,0.188,0.786
					C2143.978-731.646,2143.789-731.549,2143.598-731.549z"/>
			</g>
			<path fill="#CAB2F4" d="M1992.493-734.562c-0.103,0-0.206-0.027-0.3-0.086c-0.269-0.166-0.351-0.519-0.185-0.786
				s0.538-0.383,0.807-0.217c0.268,0.167,0.37,0.486,0.204,0.754l-0.04,0.064C1992.871-734.657,1992.685-734.562,1992.493-734.562z
				 M1994.535-737.865c-0.103,0-0.207-0.027-0.301-0.085c-0.268-0.167-0.35-0.52-0.185-0.787c0.167-0.268,0.539-0.383,0.808-0.217
				c0.268,0.167,0.37,0.486,0.204,0.755l-0.04,0.064C1994.913-737.961,1994.727-737.865,1994.535-737.865z M1996.577-741.168
				c-0.102,0-0.204-0.026-0.297-0.083c-0.27-0.164-0.354-0.516-0.19-0.785c0.163-0.269,0.536-0.388,0.805-0.223
				c0.269,0.164,0.374,0.482,0.21,0.753l-0.039,0.064C1996.957-741.266,1996.77-741.168,1996.577-741.168z M1998.617-744.471
				c-0.102,0-0.206-0.027-0.3-0.086c-0.268-0.166-0.351-0.519-0.185-0.786c0.167-0.268,0.538-0.383,0.807-0.216
				c0.268,0.166,0.37,0.485,0.205,0.754l-0.041,0.064C1998.995-744.566,1998.809-744.471,1998.617-744.471z M2000.659-747.774
				c-0.103,0-0.206-0.027-0.3-0.085c-0.268-0.167-0.351-0.52-0.185-0.787s0.538-0.382,0.807-0.216
				c0.268,0.166,0.37,0.486,0.204,0.754l-0.04,0.064C2001.037-747.87,2000.851-747.774,2000.659-747.774z M2002.7-751.077
				c-0.103,0-0.206-0.027-0.3-0.085c-0.269-0.167-0.351-0.52-0.185-0.787s0.537-0.383,0.807-0.216
				c0.268,0.166,0.37,0.486,0.204,0.754l-0.04,0.064C2003.078-751.173,2002.892-751.077,2002.7-751.077z M2004.742-754.38
				c-0.103,0-0.207-0.027-0.301-0.086c-0.268-0.166-0.35-0.519-0.184-0.786s0.538-0.383,0.807-0.217
				c0.268,0.167,0.37,0.486,0.204,0.754l-0.04,0.064C2005.12-754.476,2004.934-754.38,2004.742-754.38z M2006.783-757.683
				c-0.103,0-0.207-0.028-0.301-0.086c-0.268-0.166-0.35-0.519-0.185-0.786c0.167-0.268,0.538-0.383,0.808-0.217
				c0.268,0.167,0.37,0.486,0.204,0.754l-0.04,0.064C2007.161-757.778,2006.974-757.683,2006.783-757.683z M2008.825-760.986
				c-0.103,0-0.207-0.027-0.301-0.086c-0.268-0.166-0.351-0.519-0.185-0.786c0.168-0.268,0.539-0.381,0.807-0.217
				c0.268,0.167,0.37,0.486,0.205,0.754l-0.041,0.065C2009.202-761.082,2009.016-760.986,2008.825-760.986z M2010.866-764.289
				c-0.101,0-0.203-0.026-0.297-0.083c-0.269-0.165-0.354-0.516-0.189-0.785c0.165-0.269,0.535-0.387,0.804-0.223
				c0.27,0.164,0.375,0.482,0.211,0.753l-0.039,0.064C2011.247-764.387,2011.059-764.289,2010.866-764.289z M2012.907-767.592
				c-0.103,0-0.207-0.027-0.3-0.086c-0.268-0.166-0.351-0.519-0.185-0.786s0.537-0.383,0.807-0.217
				c0.268,0.167,0.37,0.486,0.204,0.754l-0.04,0.065C2013.285-767.688,2013.099-767.592,2012.907-767.592z M2014.949-770.896
				c-0.103,0-0.207-0.027-0.301-0.085c-0.268-0.167-0.35-0.52-0.184-0.787s0.537-0.383,0.807-0.216
				c0.268,0.166,0.37,0.486,0.204,0.754l-0.04,0.064C2015.327-770.991,2015.141-770.896,2014.949-770.896z M2016.99-774.198
				c-0.103,0-0.207-0.027-0.301-0.085c-0.268-0.167-0.35-0.52-0.185-0.787c0.167-0.268,0.538-0.383,0.807-0.216
				c0.269,0.166,0.371,0.486,0.205,0.754l-0.04,0.064C2017.368-774.294,2017.182-774.198,2016.99-774.198z M2019.032-777.501
				c-0.104,0-0.207-0.028-0.301-0.086c-0.268-0.167-0.351-0.519-0.185-0.786c0.167-0.269,0.538-0.384,0.807-0.217
				c0.268,0.166,0.37,0.486,0.205,0.754l-0.041,0.064C2019.409-777.598,2019.223-777.501,2019.032-777.501z M2021.073-780.804
				c-0.101,0-0.203-0.027-0.297-0.084c-0.269-0.164-0.354-0.515-0.189-0.785c0.165-0.269,0.535-0.387,0.804-0.222
				c0.27,0.163,0.375,0.482,0.211,0.752l-0.04,0.064C2021.454-780.901,2021.266-780.804,2021.073-780.804z M2023.114-784.107
				c-0.103,0-0.207-0.027-0.3-0.086c-0.268-0.166-0.351-0.519-0.185-0.786c0.167-0.268,0.537-0.383,0.807-0.217
				c0.268,0.167,0.37,0.486,0.204,0.754l-0.04,0.065C2023.492-784.203,2023.306-784.107,2023.114-784.107z M2025.156-787.41
				c-0.103,0-0.207-0.027-0.301-0.086c-0.268-0.166-0.35-0.519-0.184-0.786s0.537-0.383,0.807-0.217
				c0.268,0.167,0.37,0.486,0.204,0.754l-0.04,0.065C2025.534-787.506,2025.348-787.41,2025.156-787.41z M2027.197-790.713
				c-0.103,0-0.207-0.027-0.301-0.086c-0.268-0.166-0.35-0.519-0.185-0.786c0.167-0.268,0.539-0.382,0.808-0.217
				c0.268,0.167,0.37,0.486,0.204,0.754l-0.04,0.064C2027.575-790.809,2027.388-790.713,2027.197-790.713z M2029.238-794.017
				c-0.103,0-0.206-0.027-0.3-0.085c-0.268-0.167-0.351-0.52-0.185-0.787c0.168-0.268,0.54-0.381,0.807-0.216
				c0.268,0.166,0.37,0.485,0.205,0.754l-0.041,0.064C2029.616-794.112,2029.43-794.017,2029.238-794.017z M2031.28-797.319
				c-0.101,0-0.203-0.026-0.297-0.083c-0.269-0.164-0.354-0.516-0.189-0.785s0.535-0.388,0.804-0.223
				c0.27,0.164,0.375,0.482,0.211,0.753l-0.04,0.064C2031.661-797.417,2031.473-797.319,2031.28-797.319z M2033.321-800.623
				c-0.103,0-0.206-0.027-0.3-0.085c-0.268-0.167-0.351-0.519-0.185-0.787c0.167-0.268,0.538-0.383,0.807-0.216
				c0.268,0.166,0.37,0.486,0.204,0.754l-0.04,0.064C2033.699-800.719,2033.513-800.623,2033.321-800.623z M2035.363-803.926
				c-0.103,0-0.207-0.027-0.301-0.085c-0.268-0.167-0.35-0.519-0.185-0.787c0.168-0.268,0.539-0.382,0.808-0.216
				c0.268,0.166,0.37,0.486,0.204,0.754l-0.04,0.064C2035.741-804.021,2035.555-803.926,2035.363-803.926z M2037.404-807.229
				c-0.103,0-0.207-0.027-0.301-0.086c-0.268-0.166-0.35-0.519-0.185-0.786c0.167-0.268,0.539-0.383,0.808-0.217
				c0.268,0.167,0.37,0.486,0.204,0.754l-0.04,0.064C2037.782-807.324,2037.596-807.229,2037.404-807.229z M2039.445-810.531
				c-0.102,0-0.206-0.027-0.3-0.086c-0.268-0.166-0.351-0.519-0.185-0.786c0.167-0.268,0.54-0.382,0.807-0.217
				c0.268,0.167,0.37,0.486,0.205,0.754l-0.041,0.064C2039.823-810.627,2039.637-810.531,2039.445-810.531z M2041.487-813.834
				c-0.101,0-0.203-0.027-0.297-0.083c-0.269-0.165-0.354-0.516-0.19-0.786c0.166-0.269,0.536-0.387,0.805-0.222
				c0.27,0.163,0.375,0.482,0.211,0.752l-0.039,0.065C2041.868-813.932,2041.68-813.834,2041.487-813.834z M2043.528-817.138
				c-0.103,0-0.206-0.027-0.3-0.085c-0.269-0.167-0.351-0.52-0.185-0.787c0.167-0.268,0.539-0.382,0.807-0.217
				c0.268,0.167,0.37,0.486,0.204,0.754l-0.04,0.065C2043.906-817.233,2043.72-817.138,2043.528-817.138z M2045.57-820.44
				c-0.103,0-0.207-0.027-0.301-0.085c-0.268-0.167-0.35-0.52-0.184-0.787s0.538-0.382,0.807-0.217
				c0.268,0.167,0.37,0.486,0.204,0.754l-0.04,0.065C2045.948-820.536,2045.762-820.44,2045.57-820.44z M2047.611-823.744
				c-0.103,0-0.207-0.027-0.301-0.085c-0.268-0.167-0.35-0.52-0.185-0.787c0.167-0.268,0.538-0.382,0.807-0.216
				s0.371,0.486,0.205,0.754l-0.04,0.064C2047.989-823.84,2047.803-823.744,2047.611-823.744z M2049.653-827.047
				c-0.104,0-0.207-0.027-0.301-0.085c-0.268-0.167-0.351-0.52-0.185-0.787c0.167-0.268,0.539-0.381,0.807-0.216
				c0.268,0.166,0.37,0.486,0.205,0.754l-0.041,0.064C2050.03-827.143,2049.844-827.047,2049.653-827.047z M2051.694-830.35
				c-0.101,0-0.203-0.027-0.296-0.084c-0.27-0.164-0.355-0.515-0.19-0.785c0.165-0.269,0.536-0.387,0.804-0.222
				c0.27,0.163,0.375,0.482,0.211,0.752l-0.04,0.064C2052.075-830.447,2051.887-830.35,2051.694-830.35z M2053.735-833.652
				c-0.103,0-0.206-0.027-0.3-0.086c-0.268-0.166-0.351-0.519-0.185-0.786c0.166-0.269,0.537-0.383,0.807-0.217
				c0.268,0.167,0.37,0.486,0.204,0.754l-0.04,0.064C2054.113-833.749,2053.927-833.652,2053.735-833.652z M2055.777-836.955
				c-0.102,0-0.205-0.028-0.298-0.084c-0.269-0.165-0.353-0.518-0.188-0.786l0.04-0.065c0.164-0.269,0.516-0.352,0.786-0.188
				c0.269,0.165,0.353,0.517,0.188,0.786l-0.04,0.065C2056.157-837.052,2055.97-836.955,2055.777-836.955z M2057.818-840.259
				c-0.103,0-0.207-0.027-0.301-0.086c-0.268-0.166-0.35-0.519-0.185-0.786c0.167-0.268,0.538-0.382,0.807-0.217
				c0.269,0.167,0.371,0.486,0.205,0.754l-0.04,0.064C2058.196-840.354,2058.01-840.259,2057.818-840.259z M2059.859-843.562
				c-0.103,0-0.206-0.027-0.3-0.086c-0.268-0.166-0.351-0.519-0.185-0.786c0.167-0.268,0.538-0.383,0.807-0.217
				c0.268,0.167,0.37,0.486,0.205,0.754l-0.041,0.064C2060.237-843.657,2060.051-843.562,2059.859-843.562z M2061.9-846.865
				c-0.103,0-0.206-0.027-0.3-0.085c-0.268-0.167-0.351-0.52-0.185-0.787c0.167-0.268,0.538-0.382,0.807-0.216
				c0.268,0.166,0.37,0.486,0.205,0.754l-0.041,0.064C2062.278-846.961,2062.092-846.865,2061.9-846.865z M2063.942-850.168
				c-0.103,0-0.206-0.027-0.3-0.085c-0.269-0.167-0.351-0.52-0.185-0.787s0.537-0.383,0.807-0.216
				c0.268,0.166,0.37,0.486,0.204,0.754l-0.04,0.064C2064.32-850.264,2064.134-850.168,2063.942-850.168z M2065.984-853.472
				c-0.102,0-0.204-0.026-0.297-0.083c-0.27-0.164-0.354-0.515-0.19-0.785c0.165-0.269,0.535-0.387,0.805-0.222
				c0.27,0.163,0.375,0.482,0.21,0.752l-0.039,0.064C2066.365-853.568,2066.177-853.472,2065.984-853.472z M2068.025-856.774
				c-0.103,0-0.207-0.027-0.301-0.085c-0.268-0.167-0.35-0.519-0.185-0.787c0.168-0.268,0.539-0.383,0.808-0.216
				c0.268,0.166,0.37,0.486,0.204,0.754l-0.04,0.064C2068.403-856.87,2068.216-856.774,2068.025-856.774z M2070.067-860.076
				c-0.103,0-0.205-0.028-0.299-0.084c-0.269-0.166-0.353-0.518-0.188-0.786l0.04-0.065c0.165-0.269,0.515-0.351,0.786-0.188
				c0.268,0.165,0.352,0.517,0.188,0.786l-0.04,0.065C2070.447-860.173,2070.259-860.076,2070.067-860.076z M2072.107-863.38
				c-0.103,0-0.206-0.027-0.3-0.086c-0.268-0.166-0.351-0.519-0.185-0.786c0.167-0.268,0.538-0.383,0.807-0.217
				c0.268,0.167,0.37,0.486,0.205,0.754l-0.041,0.064C2072.485-863.476,2072.299-863.38,2072.107-863.38z M2074.149-866.683
				c-0.103,0-0.206-0.027-0.3-0.086c-0.268-0.166-0.351-0.519-0.185-0.786s0.538-0.383,0.807-0.217
				c0.268,0.167,0.37,0.486,0.204,0.754l-0.04,0.064C2074.527-866.778,2074.341-866.683,2074.149-866.683z M2076.191-869.986
				c-0.102,0-0.204-0.026-0.297-0.083c-0.27-0.164-0.354-0.516-0.19-0.785c0.165-0.27,0.535-0.388,0.805-0.223
				c0.27,0.164,0.375,0.482,0.21,0.753l-0.039,0.064C2076.572-870.084,2076.384-869.986,2076.191-869.986z M2078.232-873.289
				c-0.103,0-0.207-0.027-0.301-0.085c-0.268-0.167-0.35-0.52-0.185-0.787c0.167-0.268,0.539-0.383,0.807-0.217
				c0.269,0.167,0.371,0.486,0.205,0.755l-0.04,0.064C2078.61-873.385,2078.424-873.289,2078.232-873.289z M2080.274-876.593
				c-0.103,0-0.207-0.027-0.301-0.085c-0.268-0.167-0.351-0.52-0.185-0.787c0.167-0.268,0.538-0.383,0.807-0.217
				c0.268,0.167,0.37,0.486,0.205,0.755l-0.041,0.064C2080.651-876.688,2080.465-876.593,2080.274-876.593z M2082.315-879.895
				c-0.104,0-0.207-0.028-0.301-0.086c-0.268-0.167-0.351-0.519-0.185-0.787c0.167-0.268,0.537-0.385,0.807-0.216
				c0.268,0.166,0.37,0.485,0.205,0.754l-0.041,0.064C2082.692-879.99,2082.506-879.895,2082.315-879.895z M2084.356-883.198
				c-0.103,0-0.207-0.027-0.3-0.086c-0.268-0.166-0.351-0.519-0.185-0.786s0.538-0.385,0.807-0.217
				c0.268,0.166,0.37,0.486,0.204,0.754l-0.04,0.064C2084.734-883.294,2084.548-883.198,2084.356-883.198z M2086.398-886.502
				c-0.102,0-0.204-0.026-0.297-0.082c-0.27-0.165-0.354-0.516-0.19-0.785c0.165-0.27,0.536-0.385,0.805-0.223
				c0.27,0.164,0.375,0.482,0.21,0.752l-0.039,0.064C2086.779-886.599,2086.591-886.502,2086.398-886.502z M2088.439-889.805
				c-0.103,0-0.207-0.027-0.301-0.086c-0.268-0.166-0.35-0.518-0.185-0.786c0.167-0.268,0.538-0.384,0.808-0.216
				c0.268,0.166,0.37,0.485,0.204,0.754l-0.04,0.064C2088.817-889.9,2088.631-889.805,2088.439-889.805z M2090.48-893.107
				c-0.102,0-0.205-0.027-0.299-0.085c-0.268-0.165-0.352-0.518-0.187-0.786l0.04-0.064c0.167-0.268,0.518-0.352,0.786-0.186
				c0.269,0.165,0.352,0.518,0.187,0.785l-0.04,0.065C2090.859-893.203,2090.673-893.107,2090.48-893.107z M2092.521-896.41
				c-0.103,0-0.206-0.027-0.3-0.086c-0.268-0.166-0.351-0.518-0.185-0.786c0.167-0.269,0.538-0.384,0.807-0.216
				c0.268,0.166,0.37,0.485,0.205,0.754l-0.041,0.064C2092.899-896.506,2092.713-896.41,2092.521-896.41z M2094.563-899.713
				c-0.103,0-0.206-0.027-0.3-0.086c-0.269-0.166-0.351-0.519-0.185-0.787c0.166-0.268,0.537-0.383,0.807-0.216
				c0.268,0.166,0.37,0.485,0.204,0.754l-0.04,0.065C2094.941-899.809,2094.755-899.713,2094.563-899.713z M2096.605-903.016
				c-0.102,0-0.204-0.027-0.297-0.084c-0.27-0.164-0.354-0.516-0.19-0.785c0.165-0.27,0.536-0.385,0.805-0.223
				c0.27,0.164,0.375,0.483,0.21,0.752l-0.039,0.064C2096.986-903.113,2096.798-903.016,2096.605-903.016z M2098.646-906.319
				c-0.103,0-0.207-0.028-0.301-0.086c-0.268-0.166-0.35-0.519-0.185-0.786c0.167-0.269,0.538-0.383,0.808-0.217
				c0.268,0.166,0.37,0.486,0.204,0.754l-0.04,0.064C2099.024-906.415,2098.838-906.319,2098.646-906.319z M2100.688-909.623
				c-0.102,0-0.206-0.027-0.3-0.086c-0.268-0.166-0.351-0.518-0.185-0.785c0.167-0.269,0.54-0.383,0.807-0.217
				c0.268,0.166,0.37,0.486,0.205,0.754l-0.041,0.064C2101.065-909.719,2100.879-909.623,2100.688-909.623z M2102.729-912.926
				c-0.103,0-0.206-0.027-0.3-0.086c-0.268-0.166-0.351-0.518-0.185-0.786c0.167-0.269,0.538-0.384,0.807-0.216
				c0.268,0.166,0.37,0.485,0.205,0.754l-0.041,0.064C2103.106-913.021,2102.92-912.926,2102.729-912.926z M2104.771-916.229
				c-0.102,0-0.206-0.027-0.299-0.085c-0.269-0.165-0.352-0.518-0.187-0.786l0.04-0.064c0.167-0.269,0.519-0.352,0.786-0.187
				c0.269,0.165,0.352,0.518,0.187,0.786l-0.04,0.064C2105.149-916.324,2104.963-916.229,2104.771-916.229z M2106.813-919.531
				c-0.101,0-0.202-0.027-0.295-0.082c-0.271-0.164-0.356-0.516-0.193-0.785c0.164-0.27,0.536-0.389,0.804-0.225
				c0.271,0.163,0.377,0.481,0.213,0.752l-0.039,0.064C2107.193-919.629,2107.006-919.531,2106.813-919.531z M2108.854-922.834
				c-0.103,0-0.207-0.027-0.301-0.086c-0.268-0.166-0.35-0.519-0.185-0.787c0.167-0.268,0.538-0.383,0.807-0.216
				c0.269,0.166,0.371,0.485,0.205,0.754l-0.04,0.064C2109.231-922.93,2109.044-922.834,2108.854-922.834z M2110.896-926.138
				c-0.104,0-0.207-0.027-0.301-0.086c-0.268-0.166-0.351-0.519-0.185-0.786c0.167-0.268,0.54-0.383,0.807-0.217
				c0.268,0.166,0.37,0.486,0.205,0.754l-0.041,0.064C2111.272-926.232,2111.086-926.138,2110.896-926.138z M2112.936-929.44
				c-0.103,0-0.206-0.028-0.3-0.086c-0.268-0.167-0.351-0.519-0.185-0.786c0.167-0.269,0.538-0.384,0.807-0.217
				c0.268,0.166,0.37,0.486,0.205,0.754l-0.041,0.064C2113.313-929.536,2113.127-929.44,2112.936-929.44z M2114.978-932.744
				c-0.103,0-0.207-0.027-0.3-0.086c-0.268-0.166-0.351-0.518-0.185-0.785c0.167-0.269,0.538-0.385,0.807-0.217
				c0.268,0.166,0.37,0.486,0.204,0.754l-0.04,0.064C2115.355-932.84,2115.169-932.744,2114.978-932.744z M2117.019-936.047
				c-0.103,0-0.207-0.027-0.3-0.086c-0.269-0.166-0.351-0.518-0.185-0.786s0.538-0.384,0.807-0.216
				c0.268,0.166,0.37,0.485,0.204,0.754l-0.04,0.064C2117.396-936.143,2117.21-936.047,2117.019-936.047z M2119.061-939.35
				c-0.103,0-0.206-0.027-0.299-0.085c-0.269-0.165-0.352-0.518-0.187-0.786l0.04-0.064c0.166-0.268,0.518-0.352,0.786-0.187
				c0.268,0.165,0.352,0.518,0.187,0.786l-0.04,0.064C2119.438-939.445,2119.252-939.35,2119.061-939.35z M2121.102-942.652
				c-0.1,0-0.202-0.027-0.295-0.083c-0.27-0.163-0.355-0.515-0.192-0.784c0.164-0.271,0.536-0.389,0.804-0.225
				c0.27,0.163,0.376,0.481,0.213,0.752l-0.04,0.064C2121.483-942.75,2121.295-942.652,2121.102-942.652z M2123.143-945.955
				c-0.103,0-0.206-0.028-0.3-0.086c-0.268-0.166-0.351-0.52-0.185-0.787c0.167-0.268,0.537-0.384,0.807-0.216
				c0.268,0.166,0.37,0.485,0.205,0.754l-0.041,0.064C2123.521-946.051,2123.334-945.955,2123.143-945.955z M2125.185-949.259
				c-0.103,0-0.207-0.027-0.3-0.086c-0.269-0.166-0.351-0.519-0.185-0.786s0.538-0.385,0.807-0.217
				c0.268,0.166,0.37,0.486,0.204,0.754l-0.04,0.064C2125.563-949.354,2125.376-949.259,2125.185-949.259z M2127.226-952.563
				c-0.103,0-0.207-0.027-0.3-0.086c-0.269-0.166-0.351-0.518-0.185-0.785c0.166-0.269,0.537-0.385,0.807-0.217
				c0.268,0.166,0.37,0.486,0.204,0.754l-0.04,0.064C2127.604-952.657,2127.417-952.563,2127.226-952.563z M2129.268-955.865
				c-0.103,0-0.207-0.027-0.301-0.086c-0.268-0.166-0.35-0.518-0.185-0.786c0.167-0.269,0.538-0.384,0.808-0.216
				c0.268,0.166,0.37,0.485,0.204,0.754l-0.04,0.064C2129.646-955.961,2129.458-955.865,2129.268-955.865z M2131.31-959.168
				c-0.102,0-0.204-0.027-0.297-0.084c-0.27-0.164-0.354-0.516-0.19-0.784c0.164-0.27,0.536-0.386,0.805-0.224
				c0.269,0.165,0.374,0.484,0.21,0.753l-0.039,0.065C2131.689-959.266,2131.502-959.168,2131.31-959.168z M2133.35-962.471
				c-0.102,0-0.205-0.027-0.299-0.086c-0.268-0.164-0.352-0.517-0.187-0.785l0.04-0.064c0.167-0.268,0.518-0.353,0.786-0.187
				c0.269,0.165,0.352,0.518,0.187,0.786l-0.04,0.064C2133.729-962.566,2133.542-962.471,2133.35-962.471z M2135.392-965.773
				c-0.102,0-0.206-0.027-0.299-0.086c-0.269-0.165-0.352-0.518-0.187-0.785l0.04-0.065c0.166-0.267,0.518-0.353,0.786-0.187
				s0.352,0.518,0.187,0.787l-0.04,0.064C2135.771-965.87,2135.584-965.773,2135.392-965.773z M2137.433-969.077
				c-0.103,0-0.206-0.027-0.3-0.085c-0.268-0.167-0.351-0.519-0.185-0.787c0.166-0.269,0.537-0.383,0.807-0.216
				c0.268,0.167,0.37,0.486,0.204,0.754l-0.04,0.065C2137.811-969.172,2137.624-969.077,2137.433-969.077z M2139.475-972.38
				c-0.103,0-0.207-0.027-0.301-0.086c-0.268-0.166-0.35-0.519-0.185-0.786c0.167-0.269,0.538-0.383,0.808-0.217
				c0.268,0.167,0.37,0.486,0.204,0.754l-0.04,0.064C2139.853-972.476,2139.666-972.38,2139.475-972.38z M2141.517-975.683
				c-0.102,0-0.204-0.027-0.297-0.083c-0.27-0.164-0.354-0.515-0.19-0.785c0.163-0.269,0.536-0.385,0.805-0.223
				c0.269,0.165,0.374,0.483,0.21,0.753l-0.039,0.064C2141.896-975.78,2141.709-975.683,2141.517-975.683z M2143.557-978.986
				c-0.103,0-0.206-0.027-0.3-0.086c-0.268-0.166-0.351-0.518-0.185-0.786c0.167-0.269,0.537-0.383,0.807-0.216
				c0.268,0.166,0.37,0.486,0.204,0.754l-0.04,0.065C2143.935-979.082,2143.748-978.986,2143.557-978.986z"/>
		</g>
		<g>
			<path fill="#764AFF" d="M1743.121-731.347c-0.421,0-0.762-0.341-0.762-0.762c0-66.316,25.825-128.663,72.719-175.557
				c46.893-46.894,109.24-72.718,175.557-72.718c84.764,0,153.725,68.961,153.725,153.725c0,52.548-42.752,95.3-95.3,95.3h0.002
				c-0.002,0-0.002,0-0.002,0c-32.636,0-59.188-26.553-59.188-59.19l0.01-0.761c0.407-19.981,16.787-36.111,36.864-36.111
				c12.726,0.001,23.078,10.354,23.078,23.079c0,8.025-6.529,14.554-14.555,14.554c-5.12,0-9.285-4.166-9.285-9.286
				c0-3.324,2.705-6.029,6.03-6.029c0.421,0,0.762,0.341,0.762,0.762s-0.341,0.762-0.762,0.762c-2.485,0-4.507,2.021-4.507,4.506
				c0,4.281,3.482,7.764,7.763,7.764c7.186,0,13.031-5.846,13.031-13.031c0-11.886-9.67-21.556-21.556-21.556
				c-9.442,0-18.319,3.677-24.996,10.354s-10.354,15.554-10.354,24.995v0.512c0.276,31.563,26.038,57.156,57.666,57.156
				c51.707,0,93.775-42.068,93.775-93.777c0-83.924-68.277-152.202-152.202-152.202c-136.06,0-246.753,110.692-246.753,246.752
				C1743.882-731.688,1743.541-731.347,1743.121-731.347z"/>
		</g>
	</g>
	<polyline fill="none" stroke="#0D9488" stroke-miterlimit="10" points="1270.833,-865.67 1256.674,-865.67 1237.209,-865.67 
		1219.5,-865.67 	"/>
	<polyline fill="none" stroke="#0D9488" stroke-miterlimit="10" points="1270.833,-765.99 1256.674,-765.99 1219.5,-765.99 	"/>
	<line fill="none" stroke="#0D9488" stroke-miterlimit="10" x1="1232.48" y1="-865.333" x2="1232.48" y2="-765.5"/>
	<rect x="1238.126" y="-865.67" fill="#0D9488" width="14.08" height="99.68"/>
	<polyline fill="none" stroke="#E11D48" stroke-miterlimit="10" points="1238.105,-777 1233.86,-777 1223.87,-777 1223.87,-848.24 
		1223.87,-854 1238.105,-854 	"/>
	<line fill="none" stroke="#0D9488" stroke-miterlimit="10" x1="1258.73" y1="-865.67" x2="1258.73" y2="-766.456"/>
	<line fill="none" stroke="#0D9488" stroke-miterlimit="10" x1="1232.48" y1="-850.333" x2="1232.48" y2="-765.5"/>
	<line fill="none" stroke="#E11D48" stroke-miterlimit="10" x1="1266.48" y1="-854" x2="1252.23" y2="-854"/>
	<g>
		<line fill="none" stroke="#E11D48" stroke-miterlimit="10" x1="1245.48" y1="-807.475" x2="1245.48" y2="-813.058"/>
		<polyline fill="none" stroke="#E11D48" stroke-miterlimit="10" points="1245.48,-819.71 1245.48,-813.058 1256.831,-813.058 
			1266.48,-813.058 1266.48,-777 1252.199,-777.031 		"/>
	</g>
	<line fill="none" stroke="#0D9488" stroke-miterlimit="10" x1="1258.73" y1="-834.332" x2="1258.73" y2="-783.125"/>
	<g>
		<polyline fill="none" stroke="#0D9488" stroke-miterlimit="10" points="53.699,-590.667 39.54,-590.667 20.075,-590.667 
			2.366,-590.667 		"/>
		<polyline fill="none" stroke="#0D9488" stroke-miterlimit="10" points="53.699,-490.987 39.54,-490.987 2.366,-490.987 		"/>
		<line fill="none" stroke="#0D9488" stroke-miterlimit="10" x1="15.347" y1="-590.33" x2="15.347" y2="-490.497"/>
		<rect x="20.992" y="-590.667" fill="#0D9488" width="14.08" height="99.68"/>
		<polyline fill="none" stroke="#E11D48" stroke-width="3" stroke-miterlimit="10" points="20.972,-501.997 16.727,-501.997 
			6.736,-501.997 6.736,-573.237 6.736,-578.997 20.972,-578.997 		"/>
		<line fill="none" stroke="#0D9488" stroke-miterlimit="10" x1="41.597" y1="-590.667" x2="41.597" y2="-491.453"/>
		<line fill="none" stroke="#0D9488" stroke-miterlimit="10" x1="15.347" y1="-575.33" x2="15.347" y2="-490.497"/>
		
			<line fill="none" stroke="#E11D48" stroke-width="3" stroke-miterlimit="10" x1="49.347" y1="-578.997" x2="35.097" y2="-578.997"/>
		<g>
			
				<line fill="none" stroke="#E11D48" stroke-width="3" stroke-miterlimit="10" x1="28.347" y1="-532.472" x2="28.347" y2="-538.055"/>
			<polyline fill="none" stroke="#E11D48" stroke-width="3" stroke-miterlimit="10" points="28.347,-544.707 28.347,-538.055 
				39.697,-538.055 49.347,-538.055 49.347,-501.997 35.065,-502.028 			"/>
		</g>
		<line fill="none" stroke="#0D9488" stroke-miterlimit="10" x1="41.597" y1="-559.329" x2="41.597" y2="-508.122"/>
	</g>
	<g>
		<polyline fill="none" stroke="#0D9488" stroke-miterlimit="10" points="53.033,-461.944 38.874,-461.944 19.409,-461.944 
			1.7,-461.944 		"/>
		<polyline fill="none" stroke="#0D9488" stroke-miterlimit="10" points="53.033,-362.265 38.874,-362.265 1.7,-362.265 		"/>
		<line fill="none" stroke="#0D9488" stroke-miterlimit="10" x1="14.68" y1="-461.607" x2="14.68" y2="-361.774"/>
		<rect x="20.326" y="-461.944" fill="#0D9488" width="14.08" height="99.68"/>
		<polyline fill="none" stroke="#E11D48" stroke-width="3" stroke-miterlimit="10" points="20.305,-373.274 16.06,-373.274 
			6.07,-373.274 6.07,-444.515 6.07,-450.274 20.305,-450.274 		"/>
		<line fill="none" stroke="#0D9488" stroke-miterlimit="10" x1="40.93" y1="-461.944" x2="40.93" y2="-362.73"/>
		<line fill="none" stroke="#0D9488" stroke-miterlimit="10" x1="14.68" y1="-446.607" x2="14.68" y2="-361.774"/>
		<line fill="none" stroke="#E11D48" stroke-width="3" stroke-miterlimit="10" x1="48.68" y1="-450.274" x2="34.43" y2="-450.274"/>
		<g>
			
				<line fill="none" stroke="#E11D48" stroke-width="3" stroke-miterlimit="10" x1="27.68" y1="-403.749" x2="27.68" y2="-409.332"/>
			<polyline fill="none" stroke="#E11D48" stroke-width="3" stroke-miterlimit="10" points="27.68,-415.984 27.68,-409.332 
				39.031,-409.332 48.68,-409.332 48.68,-373.274 34.399,-373.306 			"/>
		</g>
		<line fill="none" stroke="#0D9488" stroke-miterlimit="10" x1="40.93" y1="-430.606" x2="40.93" y2="-379.399"/>
	</g>
	
		<text transform="matrix(1.0786 0 0 1 57.8804 -229.5518)" fill="#F1F2F2" font-family="'Staatliches-Regular'" font-size="97.7225">INGENIUM</text>
	<g>
		<polyline fill="none" stroke="#F1F2F2" stroke-miterlimit="10" points="54.532,-313.452 40.373,-313.452 20.908,-313.452 
			3.199,-313.452 		"/>
		<polyline fill="none" stroke="#F1F2F2" stroke-miterlimit="10" points="54.532,-213.772 40.373,-213.772 3.199,-213.772 		"/>
		<line fill="none" stroke="#F1F2F2" stroke-miterlimit="10" x1="16.18" y1="-313.115" x2="16.18" y2="-213.282"/>
		<rect x="21.825" y="-313.452" fill="#F1F2F2" width="14.08" height="99.68"/>
		<polyline fill="none" stroke="#F1F2F2" stroke-width="3" stroke-miterlimit="10" points="21.805,-224.782 17.56,-224.782 
			7.569,-224.782 7.569,-296.022 7.569,-301.782 21.805,-301.782 		"/>
		<line fill="none" stroke="#F1F2F2" stroke-miterlimit="10" x1="42.43" y1="-313.452" x2="42.43" y2="-214.238"/>
		<line fill="none" stroke="#F1F2F2" stroke-miterlimit="10" x1="16.18" y1="-298.115" x2="16.18" y2="-213.282"/>
		<line fill="none" stroke="#F1F2F2" stroke-width="3" stroke-miterlimit="10" x1="50.18" y1="-301.782" x2="35.93" y2="-301.782"/>
		<g>
			<polyline fill="none" stroke="#F1F2F2" stroke-width="3" stroke-miterlimit="10" points="29.18,-267.492 29.18,-260.84 
				40.53,-260.84 50.18,-260.84 50.18,-224.782 35.898,-224.813 			"/>
			<line fill="none" stroke="#414042" stroke-width="3" stroke-miterlimit="10" x1="29.18" y1="-255.257" x2="29.18" y2="-267.09"/>
			
				<line fill="none" stroke="#414042" stroke-width="3" stroke-miterlimit="10" x1="28.763" y1="-260.924" x2="36.596" y2="-260.924"/>
		</g>
		<line fill="none" stroke="#F1F2F2" stroke-miterlimit="10" x1="42.43" y1="-282.114" x2="42.43" y2="-230.907"/>
	</g>
	<text transform="matrix(0.9859 0 0 1 69.0879 51.123)"><tspan x="0" y="0" fill="#E11D48" font-family="'Staatliches-Regular'" font-size="50.8556">INGENIU</tspan><tspan x="137.612" y="0" fill="#E11D48" font-family="'Staatliches-Regular'" font-size="50.8556">M</tspan></text>
	
		<text transform="matrix(1.271 0 0 1 69.0874 69.8262)" fill="#231F20" font-family="'UnicaOne-Regular'" font-size="15" letter-spacing="0.787">Integrated Talent</text>
	<text transform="matrix(1.271 0 0 1 69.0874 86.3262)" fill="#231F20" font-family="'UnicaOne-Regular'" font-size="14.592">Management System</text>
	<text transform="matrix(1.2919 0 0 1 69.0879 103.4365)" fill="#58595B" font-family="'Kraftstoff-Regular'" font-size="13">Your Journey To Be Great Leaders</text>
	<g>
		<polyline fill="none" stroke="#0D9488" stroke-miterlimit="10" points="59.699,9.333 45.54,9.333 26.075,9.333 8.366,9.333 		"/>
		<polyline fill="none" stroke="#0D9488" stroke-miterlimit="10" points="59.699,109.013 45.54,109.013 8.366,109.013 		"/>
		<line fill="none" stroke="#0D9488" stroke-miterlimit="10" x1="21.347" y1="9.67" x2="21.347" y2="109.503"/>
		<rect x="26.992" y="9.333" fill="#0D9488" width="14.08" height="99.68"/>
		<polyline fill="none" stroke="#E11D48" stroke-width="3" stroke-miterlimit="10" points="26.972,98.003 22.727,98.003 
			12.736,98.003 12.736,26.763 12.736,21.003 26.972,21.003 		"/>
		<line fill="none" stroke="#0D9488" stroke-miterlimit="10" x1="47.597" y1="9.333" x2="47.597" y2="108.547"/>
		<line fill="none" stroke="#0D9488" stroke-miterlimit="10" x1="21.347" y1="24.67" x2="21.347" y2="109.503"/>
		<line fill="none" stroke="#E11D48" stroke-width="3" stroke-miterlimit="10" x1="55.347" y1="21.003" x2="41.097" y2="21.003"/>
		<g>
			<line fill="none" stroke="#E11D48" stroke-width="3" stroke-miterlimit="10" x1="34.347" y1="67.528" x2="34.347" y2="61.945"/>
			<polyline fill="none" stroke="#E11D48" stroke-width="3" stroke-miterlimit="10" points="34.347,55.293 34.347,61.945 
				45.697,61.945 55.347,61.945 55.347,98.003 41.065,97.972 			"/>
		</g>
		<line fill="none" stroke="#0D9488" stroke-miterlimit="10" x1="47.597" y1="40.671" x2="47.597" y2="91.878"/>
	</g>
</g>
<g id="Layer_2">
</g>
</svg>
